<svg xmlns="http://www.w3.org/2000/svg" viewBox="0 0 740.7 57.07"><defs><style>.cls-1{fill:#fff;}</style></defs><g id="レイヤー_2" data-name="レイヤー 2"><g id="base"><path class="cls-1" d="M35.75,5a9.78,9.78,0,0,0-2-1.92,8.21,8.21,0,0,0-4.6-1.61,12.6,12.6,0,0,0-1.54-.16,8.45,8.45,0,0,0-3.45.85c-1.69.77-2,1.69-2.53,3.3a7.08,7.08,0,0,0-.31,2.07,7,7,0,0,0,.23,1.68,10.46,10.46,0,0,0,1.92,3.92,14.31,14.31,0,0,0,3.61,3.53C29.07,18,34.9,20,40.35,20a21.83,21.83,0,0,0,6.29-.84,30.19,30.19,0,0,1,2.84-3.84c.92-1,1.53-2.15,3.06-4a46.88,46.88,0,0,1,6.75-6.67A9.15,9.15,0,0,1,64.13,3a2.77,2.77,0,0,1,.92.16,2.36,2.36,0,0,1,1.3,2.3,5.25,5.25,0,0,1-.23,1.45c-.61,2.07-1.3,1.69-3.07,4-1.84,2.46-2.53,2.07-4,3.76S56.53,16.42,55,17.57a13,13,0,0,1-4.14,1.84L49.4,21.78c-.77,1.08-1.54,2.92-2.84,5l-2.07,3.91.61.46a36.81,36.81,0,0,0,5.3-1.38c3.75-1.23,7.44-4.29,8.89-5.37,1.61-1.22,4.07-3.68,5.53-4.6,1.3-.84,2.3-2.3,4-4.14C70.88,13.35,72,12.12,74,9.82a24.21,24.21,0,0,1,4.22-4,10,10,0,0,1,3.53-2.07c1.3-.31,2.53-1.38,5.06-1.38.38,0,.77-.08,1.07-.08,1.69,0,2,.54,2,.77,0,.54-1.61,1.46-2.07,1.46-.62,0-.92-.85-1.54-.85-.38,0-.92.23-2.37.54-1.84.31-2.92,2-4.3,3.14s-.54.85-1.84,2.46a14.45,14.45,0,0,0-2.38,3.07A56.18,56.18,0,0,1,71.26,19a37,37,0,0,1-4.68,5.14C65,25.77,63.82,25.93,62,27.61c-1.69,1.62-2.15,1.31-4.22,2.31s-3.38,1.38-4.83,1.91a35.35,35.35,0,0,1-5.6,1.08,35.86,35.86,0,0,0,2.61,3.45c1.68,1.76,1.61,2.3,3,4s2.68,2.61,5.6,4a14.37,14.37,0,0,0,5.6.92,15.06,15.06,0,0,0,6.21-1.54,8.67,8.67,0,0,1,1.92-.84c.69-.38,1.3-.54,2.07-1a10,10,0,0,1,1.38-.77,2.16,2.16,0,0,1,1.07-.38.91.91,0,0,1,.62.23.57.57,0,0,1,.23.54c0,.23-.31.53-.62.77-.92.53-1.76.76-2.53,1.22-1.07.62-2.22.77-3.37,1.61a9.87,9.87,0,0,1-2.23,1.15,4.43,4.43,0,0,0-1.61.62,14.44,14.44,0,0,1-5.14,1.68c-.69,0-2.15.39-3.6.39a4.84,4.84,0,0,1-1.46-.15c-5.22-1.31-6.14-3.61-7.29-5a18.69,18.69,0,0,1-2.3-3.53c-.38-.69-.92-1.38-1.46-2.22s-.53-1.61-1.07-2.61a4.76,4.76,0,0,0-1.92-2,15.78,15.78,0,0,1-1.84,3.07c-.84.85-.38.46-1.46,2.61a40.14,40.14,0,0,1-4.14,6,58.62,58.62,0,0,1-4.06,4.53c-1.46,1.23-1.92,1.38-3.76,3.07s-4.14,2.22-6,3.07A15.38,15.38,0,0,1,15.49,57c-.61,0-1.3-.07-2.22-.07-.77,0-1.46.15-2.3.15-2.38,0-4.45-1.3-5.6-1.84C4,54.61,3.3,53.46,2.22,52A11.62,11.62,0,0,1,0,45.26c0-1.46.38-2,1.53-2,.62,0,2.31,1.31,2.31,2.23s-.54.92-.54,2.76S4,50.17,4.6,51.62A5,5,0,0,0,7,54.38a14.32,14.32,0,0,0,3.45,1.31,3.18,3.18,0,0,0,1.15.23c.92,0,2-.31,3.61-.46a12.82,12.82,0,0,0,5.6-2.3c1.68-1,2.53-2,6.13-5.6C28,46.48,29.3,44.41,30.45,43s2.15-2.69,6.91-9.59a19.72,19.72,0,0,1-5.14-1.31,2.28,2.28,0,0,1-1.15-2.14,2.69,2.69,0,0,1,.15-.85c.46-1,1.61-1.15,3.14-1.23.39,0,.77-.07,1.23-.07a14.53,14.53,0,0,1,4.83.92l5-7.75a20.26,20.26,0,0,1-3.91.46,52.37,52.37,0,0,1-9.28-1.07c-2.15-.46-3-.62-4.84-1.15A17.46,17.46,0,0,1,20.71,16c-2.76-1.92-4.37-3.91-4.37-7.44s3.45-6.67,4.83-7c1-.23,2-.69,3.38-1.15A8.16,8.16,0,0,1,27.77,0c.84,0,1.76.08,2.84.08,2.3.07,2.3.69,4.21,1.15a5.58,5.58,0,0,1,3.61,2.53,3.29,3.29,0,0,1,.08.92c0,1.07-.31,2.45-1,2.45S36.9,6.14,35.75,5Zm3.68,25.23-1.54-.69a5.11,5.11,0,0,0-1.84-.3c-.84,0-1.46.23-1.46.46,0,1,1.39,1.38,3.84,2.07ZM52.24,17a27,27,0,0,0,3-1.61A30.81,30.81,0,0,0,61.82,9.2a8.81,8.81,0,0,0,1.85-4.14c0-.61-.16-.84-.39-.84a6.94,6.94,0,0,0-1.53.69,6.26,6.26,0,0,0-2.69,2.53c-.92,1.61-1.61,1.76-2.68,3.3s-2.15,3.14-2.84,4.14A20,20,0,0,0,52.24,17Z"/><path class="cls-1" d="M100.17,49.78c-.3,0-.61.08-.92.08a21.33,21.33,0,0,1-4.6-.61,6,6,0,0,1-2.84-1.92C91.2,46.48,90,45.18,90,44.18s-.31-2.3-.31-3.14c0-.54.39-.85.46-2.07,0-1,.93-2.53,2.08-4-1.77,1-4.84,2.22-5.6,2.76s-2.69,1.3-3.23,1.53c-.84.39-2.37.92-3.37,1.46-.61.31-1.38.54-1.92.84a7.68,7.68,0,0,1-1.23.46c-.53,0-1.07-.3-1.07-.69s.54-.46,1.07-.76c.23-.31.54-.31.85-.46a3.79,3.79,0,0,0,1.84-.77,20,20,0,0,1,2.91-1.46,12.34,12.34,0,0,0,2.31-1.07,21.12,21.12,0,0,1,2.3-1.07c.92-.47,1.15-.23,2.07-.77,1.15-.69,5.83-3.22,7.75-4.14a54.37,54.37,0,0,1,5.44-2.46A7.71,7.71,0,0,1,104.7,28a7.16,7.16,0,0,1,2,.23A2.74,2.74,0,0,1,108,30.76a4.44,4.44,0,0,1-1.31,2.76A17.73,17.73,0,0,1,102.93,37a40.34,40.34,0,0,1-4.29,2.69A13.17,13.17,0,0,1,95.49,41c0,.46.16.92.16,1.46a9.91,9.91,0,0,0,1.45,3.3,7.61,7.61,0,0,0,1.85,1,9.57,9.57,0,0,0,2.6.23c2.77,0,3.92-.15,4.45-.38a18.64,18.64,0,0,0,2.92-.84c.92-.39,1.84-.16,2.68-.69.39-.39,2.69-1,3.22-1.31a11.9,11.9,0,0,1,1.92-.69c.46-.23.16-.15,1.15-.69A7,7,0,0,0,119,41.8a6.62,6.62,0,0,0,1-.69,2.55,2.55,0,0,1,1.07-.3,1.19,1.19,0,0,1,.69.23,1,1,0,0,1,.23.53.74.74,0,0,1-.3.54l-1.61.77c-.31.31-.92.54-1.15.84-1.08.69-2.15.62-3.38,1.38a6.82,6.82,0,0,1-2,.77c-1,.38-1.84.46-2,.61-.38.69-2.91,1.31-3.91,1.61A25.72,25.72,0,0,1,100.17,49.78ZM95.8,39.35a14.75,14.75,0,0,0,2.69-1.23c1.22-.92,2.53-1.76,2.83-2,.39-.38,2.3-2.46,2.61-2.92a3.37,3.37,0,0,0,.69-1.91.79.79,0,0,0-.84-.62,2.29,2.29,0,0,0-1.15.46,26.8,26.8,0,0,0-2.69,2.23,15.23,15.23,0,0,0-3.83,5.06A3.28,3.28,0,0,0,95.8,39.35Z"/><path class="cls-1" d="M148.11,49.09c-.46.54-1.53.23-2.45.69a7,7,0,0,1-1.54.16,17.43,17.43,0,0,1-2.76-.23,6.39,6.39,0,0,1-2.76-1.77,5.15,5.15,0,0,1-1.15-2.76c0-.54-.08-1-.08-1.46a4.4,4.4,0,0,1,.31-1.84c.54-.84,1.3-3,1.92-3.3a5.79,5.79,0,0,0,1.15-1.45c.15-.31.84-1.23,1.22-1.92a2.23,2.23,0,0,0,.54-1.23.71.71,0,0,0-.69-.77,9.42,9.42,0,0,0-3.14.92c-1.08.54-2.3.92-3.07,1.31s-3.91,1.76-4.68,2.3c-.92.46-2.69,1.3-3.3,1.53l-5.29,2.3a3.16,3.16,0,0,1-1.23.46,1.09,1.09,0,0,1-1-.69c0-.3.39-.46,1-.76a3,3,0,0,1,.84-.46,3.24,3.24,0,0,0,1.85-.77,12.21,12.21,0,0,1,2.91-1.46,42.06,42.06,0,0,0,4.6-2.14c1-.47,1.31-.16,2.07-.77.39-.23,2.23-1.38,4.15-2.3,2.53-1.23,3.83-1.69,4.29-2a8.71,8.71,0,0,1,4.3-1.38,4.37,4.37,0,0,1,2.6.85,2.46,2.46,0,0,1,1.08,2.37c0,1.61-2.15,3.23-2.15,4-.61.69-.69,1.31-1.38,2.07a8.65,8.65,0,0,0-1.84,2.53,13,13,0,0,0-1.23,5c0,.92,1.23,1.46,1.84,1.46s1.15.07,1.69.07a2.61,2.61,0,0,0,1.38-.3,22.22,22.22,0,0,0,2.61-.85,10.49,10.49,0,0,0,2.84-.76c.84-.39,1.84-.16,2.61-.69.46-.39,2.76-1,3.22-1.31A15.35,15.35,0,0,1,161.3,43c.46-.23.23-.15,1.16-.69a21.75,21.75,0,0,0,2.14-1.15,3,3,0,0,1,1.15-.38.83.83,0,0,1,.85.76.71.71,0,0,1-.31.54,25.35,25.35,0,0,0-2.68,1.61c-1.08.85-2.23.62-3.46,1.38a7.35,7.35,0,0,1-1.91.77c-1,.38-1.84.46-2.07.61-.39.69-3,1-3.92,1.38C150.41,48.79,148.57,48.63,148.11,49.09Zm9.67-34.67a1.86,1.86,0,0,1-.69,1.69c-.77.31-1.31.46-2,.77a7.4,7.4,0,0,1-1.76.38c-.69,0-1.77-.69-1.84-1.15a3.72,3.72,0,0,1,.53-1.77c.23-.38.46-.76.92-.84,1-.23,1.77-1,2.77-1A1.82,1.82,0,0,1,157.78,14.42Z"/><path class="cls-1" d="M187.07,48.71c-.84,1.38-2.53,2.3-3.14,2.84a5.18,5.18,0,0,1-2.45,1.38,11,11,0,0,1-3.46.46,6.77,6.77,0,0,1-3-.69c-1.38-.69-1.69-.62-2.07-1.84a7,7,0,0,1-.31-1.38,1.23,1.23,0,0,1,.46-.93,8.22,8.22,0,0,1,2.69-1.3c.77-.15,2.76-.69,3.68-.77a14.83,14.83,0,0,0,2.61-.23,8.26,8.26,0,0,1,1.15-.15,16.13,16.13,0,0,1-.31-3.53,5.45,5.45,0,0,0-.23-2c-.46-.92-.23-3.07-.61-4.68-.08-.46-.08-1-.23-1.61a8,8,0,0,1-1.69,1.15c-.84.54-3.91,1.76-4.68,2.3-.92.46-2.68,1.3-3.3,1.53l-5.29,2.3a3.1,3.1,0,0,1-1.23.46,1.07,1.07,0,0,1-1-.69c0-.3.38-.46,1-.76a3,3,0,0,1,.85-.46,3.24,3.24,0,0,0,1.84-.77,12.21,12.21,0,0,1,2.91-1.46l2.3-1.07a21.07,21.07,0,0,0,2.31-1.07c1-.47,1.3-.16,2.07-.77.46-.23,2.14-1.31,3.76-2.3-.08-.77-.16-1.61-.16-2.3a5.28,5.28,0,0,1,.16-1.46c.23-.92,1-2.07,1-2.46,0-1.38.69-2.07,2.07-3.45,1.08-1.15,4.61-2.07,5.6-2.07s1.61,1,1.84,1.38a4,4,0,0,1,.62,1.77,2.83,2.83,0,0,1-.31,1.22A4.91,4.91,0,0,1,191.45,27c-.54.61-.85,1.46-1.31,1.84a13.39,13.39,0,0,0-2.3,1.77,4.13,4.13,0,0,1-.84.69,15.82,15.82,0,0,0,.84,5.6c.39.76.46,1.53.46,5.52a14.38,14.38,0,0,1-.3,3.07,6.82,6.82,0,0,0,1.53-.08,20.4,20.4,0,0,0,2.68-.46c.92-.31,1.77.08,2.69-.54.38-.23,2.84-.46,3.3-.69s1.53-.38,2.07-.61A12.82,12.82,0,0,0,202,42.5c.31-.16,1.77-.62,2-.7s.84-.3,1.07-.61a3,3,0,0,1,1.15-.38.83.83,0,0,1,.61.23c.23.23.31.38.31.53,0,.31-.31.46-.38.54-.46.23-1.61.77-1.61.77-.31.31-1.38.31-1.69.54a12.39,12.39,0,0,1-4.6,1.68l-2.3.39a4.49,4.49,0,0,0-2,.53c-.61.54-4.06.77-7,1.15A8.05,8.05,0,0,1,187.07,48.71Zm-4.29-.85c-3.22.54-6.37.54-7.59,1.46a1.07,1.07,0,0,0-.39.69c0,.23.16.39.39.62a9.1,9.1,0,0,0,3.45.53,4,4,0,0,0,3-1.22A6.93,6.93,0,0,0,182.78,47.86ZM186.92,29c1.15-1,2.15-2,2.46-2.31a5.09,5.09,0,0,0,1.3-3c0-.23-.23-.3-.46-.3a2.22,2.22,0,0,0-1.3.46,7.19,7.19,0,0,0-1.85,2.91A12.1,12.1,0,0,0,186.92,29Z"/><path class="cls-1" d="M265,43.34a17.82,17.82,0,0,1,2.23-1l2.3-1.15a2.09,2.09,0,0,1,1.15-.31,1.37,1.37,0,0,1,.61.16.69.69,0,0,1,.23.61c-.07.23-.61.54-.69.62-.76.46-1.84.92-2.83,1.38A25.39,25.39,0,0,0,264.77,45c-.69.3-2.76.46-3,.76a8.55,8.55,0,0,1-3.6.69c-.85,0-2.07.23-3.07.23a19.44,19.44,0,0,1-3.76-.46A18.24,18.24,0,0,1,249,44.87a10.14,10.14,0,0,1-2.22-2.68,11.63,11.63,0,0,1-.85-2.84c0-.15-.07-.23-.15-.23a3.11,3.11,0,0,0-1.3.84c-.85.69-1.38,1.69-2.38,2.15a4.57,4.57,0,0,0-1.92.92c-1.07.69-1.46,1.77-2.76,2.69a24.78,24.78,0,0,1-3.14,2.22c-1.23.61-3,.69-4.45,1.31a3.94,3.94,0,0,1-1.23.23A12.52,12.52,0,0,1,226,49c-1.15-.39-2.53-1.62-2.53-2.69a8.55,8.55,0,0,1,.84-3.68c.69-.77.77-2.3,1.38-3.15a21,21,0,0,0,1.92-3.37,6.46,6.46,0,0,0,.69-2.15c0-.61-.31-.84-1.07-.84a27.87,27.87,0,0,0-6.52,2.3c-.85.54-3.92,1.76-4.68,2.3-.92.46-2.69,1.3-3.3,1.53l-5.29,2.3a3.16,3.16,0,0,1-1.23.46,1.08,1.08,0,0,1-1-.69c0-.3.38-.46,1-.76a2.85,2.85,0,0,1,.84-.46,3.17,3.17,0,0,0,1.84-.77,12.33,12.33,0,0,1,2.92-1.46l2.3-1.07a21,21,0,0,0,2.3-1.07c1-.47,1.3-.16,2.07-.77.69-.39,7.59-3.76,9-4.3a17.46,17.46,0,0,1,4.14-1.38,4.27,4.27,0,0,1,2.84.85,1.92,1.92,0,0,1,.85,1.68,2.56,2.56,0,0,1-.31,1.31,13.59,13.59,0,0,1-1.38,3.07c-.62,1-1.08,2.83-1.61,3.6a9.52,9.52,0,0,0-1.31,3.07,8.27,8.27,0,0,0-.84,2.84,1.23,1.23,0,0,0,1.38,1.15,2.65,2.65,0,0,0,.77-.16,22.33,22.33,0,0,0,2.45-1.53c1-.46,2.84-2.38,3.68-2.91,1-.7,1.23-1.31,1.85-1.31.3,0,.84-.61,1.3-1.15.61-.61,1-.69,1.61-1.3a24.17,24.17,0,0,0,2.22-2c.85-1,1.62-1.53,2.23-2.38a30.67,30.67,0,0,1,2.3-2.07,2.19,2.19,0,0,1,1.76-.84,1.25,1.25,0,0,1,.54.08c.92.07,1.69.61,1.69,1.22a4,4,0,0,1-.69,2.53,6.43,6.43,0,0,0-.69,3c0,.61.3,1.53.38,2.83A4.42,4.42,0,0,0,254,43.19a6.53,6.53,0,0,0,2.76,1,16,16,0,0,0,3.15.23,18.32,18.32,0,0,0,3.6-.69C264.08,43.57,264.62,43.72,265,43.34Z"/><path class="cls-1" d="M285.4,32a10.27,10.27,0,0,1,1.85-3.46,31.09,31.09,0,0,0,2.91-5.29A23.63,23.63,0,0,1,292.31,20,5.89,5.89,0,0,1,293.77,18a12.38,12.38,0,0,0,1.84-2.53c.61-.77,1.22-1.31,1.61-1.77a1.9,1.9,0,0,0,.76-1.38c.16-.61,3.38-3,4.45-3.91,1.23-1.07,2.84-1.38,4.68-2.68a5.5,5.5,0,0,1,3-.85,4.82,4.82,0,0,1,2.15.39,5,5,0,0,1,.84,2.6A11.12,11.12,0,0,1,312,10.74c-.54.84-1,2.07-1.76,3.53a16.92,16.92,0,0,1-1.61,2.61c-.31.53-1.92,2-2.15,2.37s-1,1.46-1.31,1.54a4.63,4.63,0,0,0-1.68,1.76,22.74,22.74,0,0,1-2.69,2.69c-.84.76-1.46,1.38-2.3,2.07a25.42,25.42,0,0,1-3.3,2.68,34.09,34.09,0,0,1-4.68,2.69c-1.45,3.22-1.76,4.06-2.3,5.06-1.92,3.68-2,4.83-2,5.45,0,.23.07.38.3.38a2.86,2.86,0,0,0,1.23-.69c1.08-.77,1.23-.46,1.92-1.31A4.11,4.11,0,0,1,291.39,40c.61-.08.76-.54,1.38-1.15a31,31,0,0,1,2.76-2.45c.38-.31,1.69-1.62,2.3-2.23s2.07-1,2.84-1.92a4,4,0,0,1,1.84-1.91,19.08,19.08,0,0,0,3.37-1.92,3.68,3.68,0,0,1,2.46-.62c1.53,0,3.37,2,3.37,3.76,0,.92-1,2.53-1.84,3.61A6.08,6.08,0,0,1,307.34,37a4.86,4.86,0,0,1-2.22,1.54c-1.15.38-2.15,1.07-3.22,1.38s-2,.61-2,1.15.92,1.3,1.54,1.69a15.65,15.65,0,0,0,2.53.92c.23.15.38.23,1.3.3a14.36,14.36,0,0,0,2.3.46,2.79,2.79,0,0,0,.85.08c.61,0,1.38-.08,2.14-.15,1.08-.08,2.07-.31,2.61-.31a5.9,5.9,0,0,0,2-.46,8.71,8.71,0,0,1,.92-.23c1.22-.38,2.45-.77,3.6-1.23a14,14,0,0,0,1.77-1,3.22,3.22,0,0,1,1.15-.3c.38,0,.61.23.61.76,0,.23-.61.54-1.15.85,0,0-.15.15-.23.15a37.62,37.62,0,0,1-4.83,2.3c-1.38.46-4.07,1.23-5.6,1.54a44.47,44.47,0,0,1-5.07.38c-1.61,0-3.45-.46-4.29-.46s-1.23-.61-2.3-.84a12.11,12.11,0,0,1-3.45-1.77c-.69-.53-1-.92-1-1.53a3.45,3.45,0,0,1,.38-1.31c.85-1.45,1.92-.84,2.92-1.3a8.31,8.31,0,0,0,2.15-1.07c.61-.31.84-1,1.45-1.31s1.23-1.07,2-1.45.38-.85,1.22-1.92a3.46,3.46,0,0,0,.92-2,1.22,1.22,0,0,0-1.07-1.15,3.15,3.15,0,0,0-1.46.69c-1,.77-1.61,1.31-2.37,1.84s-1.85,1.38-2.46,1.84-1.3.62-1.38,1.16a5.38,5.38,0,0,1-2,2.14c-.77.54-1.38,1.61-2.08,1.84s-.38.69-1.38,1.54c-.23.15-3.75,3-3.83,3.22-.38.84-2.07,1.61-2.84,2.3-.61.69-2,2-2.76,2-.61,0-1.53-.23-1.76-.7a6.66,6.66,0,0,1-.7-2.45c0-1.69,1.16-3.45,1.85-5.22.46-1.45,1.07-3.83,1.3-4.6-1.23.54-2.53,1.23-3,1.46-.85.46-2.69,1.3-3.22,1.53-.69.39-2.69,1.08-3.38,1.38s-1.23.62-2,.92a4.51,4.51,0,0,1-1.23.46,1.1,1.1,0,0,1-1.07-.69c0-.3.53-.46,1.07-.76.31-.31.69-.31.84-.46a3.79,3.79,0,0,0,1.92-.77c.15-.31,1.61-.92,3.45-1.69,2.38-1,3.22-1.53,4.07-1.91a38.1,38.1,0,0,0,3.45-1.62S285.17,32.6,285.4,32Zm8.9-3.38A25.82,25.82,0,0,1,297,26.39,23.52,23.52,0,0,0,299.75,24a32.3,32.3,0,0,0,2.38-2.3c.61-.77,2.14-2.84,3.06-3.76a27.05,27.05,0,0,0,2.15-2.61c.62-.84.85-1.46,1.23-1.84a11.88,11.88,0,0,0,.92-2.22,11,11,0,0,0,.77-2.23,2,2,0,0,0-.69-1.15c-.54,0-1.23.69-1.69,1s-1.38,1.69-2.15,1.84-.46,1.07-1.76,2.15a31.74,31.74,0,0,0-3.61,3.83c-1,.85-2,1.92-2.07,2-.38.38-.31.92-.38,1.07a10,10,0,0,0-1.46,2.3c-.23.77-1.23,1.61-1.69,2.53-.69.85-.3,1.31-3.37,6A10.41,10.41,0,0,0,294.3,28.61Z"/><path class="cls-1" d="M345.84,49.78c-.3,0-.61.08-.92.08a21.33,21.33,0,0,1-4.6-.61,6,6,0,0,1-2.84-1.92c-.61-.85-1.84-2.15-1.84-3.15s-.3-2.3-.3-3.14A20.35,20.35,0,0,0,335.8,39c0-1,.92-2.53,2.07-4-1.77,1-4.84,2.22-5.6,2.76s-2.69,1.3-3.22,1.53c-.85.39-2.38.92-3.38,1.46-.61.31-1.38.54-1.92.84a7.58,7.58,0,0,1-1.22.46c-.54,0-1.08-.3-1.08-.69s.54-.46,1.08-.76c.23-.31.53-.31.84-.46a3.79,3.79,0,0,0,1.84-.77,20,20,0,0,1,2.91-1.46,12.34,12.34,0,0,0,2.31-1.07,21.12,21.12,0,0,1,2.3-1.07c.92-.47,1.15-.23,2.07-.77,1.15-.69,5.83-3.22,7.75-4.14A54.37,54.37,0,0,1,348,28.38a7.76,7.76,0,0,1,2.38-.38,7.16,7.16,0,0,1,2,.23,2.74,2.74,0,0,1,1.31,2.53,4.44,4.44,0,0,1-1.31,2.76A17.92,17.92,0,0,1,348.61,37a41.52,41.52,0,0,1-4.3,2.69,13.28,13.28,0,0,1-3.14,1.3c0,.46.15.92.15,1.46a9.74,9.74,0,0,0,1.46,3.3,7.41,7.41,0,0,0,1.84,1,9.61,9.61,0,0,0,2.61.23c2.76,0,3.91-.15,4.44-.38a18.64,18.64,0,0,0,2.92-.84c.92-.39,1.84-.16,2.68-.69.39-.39,2.69-1,3.23-1.31a11.77,11.77,0,0,1,1.91-.69c.46-.23.16-.15,1.15-.69a7,7,0,0,0,1.15-.54,6.62,6.62,0,0,0,1-.69,2.55,2.55,0,0,1,1.07-.3,1.19,1.19,0,0,1,.7.23,1,1,0,0,1,.23.53.71.71,0,0,1-.31.54c-.46.23-1.61.77-1.61.77-.31.31-.92.54-1.15.84-1.08.69-2.15.62-3.38,1.38a6.82,6.82,0,0,1-2,.77c-1,.38-1.84.46-2,.61-.38.69-2.91,1.31-3.91,1.61A25.63,25.63,0,0,1,345.84,49.78Zm-4.37-10.43a14.75,14.75,0,0,0,2.69-1.23c1.22-.92,2.53-1.76,2.83-2,.39-.38,2.31-2.46,2.61-2.92a3.37,3.37,0,0,0,.69-1.91.79.79,0,0,0-.84-.62,2.29,2.29,0,0,0-1.15.46,26.8,26.8,0,0,0-2.69,2.23,15.23,15.23,0,0,0-3.83,5.06A3.28,3.28,0,0,0,341.47,39.35Z"/><path class="cls-1" d="M431.83,5a9.52,9.52,0,0,0-2-1.92,8.21,8.21,0,0,0-4.6-1.61,12.41,12.41,0,0,0-1.54-.16,8.45,8.45,0,0,0-3.45.85c-1.68.77-2,1.69-2.53,3.3a7.08,7.08,0,0,0-.31,2.07,7,7,0,0,0,.23,1.68,10.46,10.46,0,0,0,1.92,3.92,14.31,14.31,0,0,0,3.61,3.53C425.15,18,431,20,436.43,20a21.83,21.83,0,0,0,6.29-.84,30.19,30.19,0,0,1,2.84-3.84c.92-1,1.53-2.15,3.06-4a46.88,46.88,0,0,1,6.75-6.67A9.15,9.15,0,0,1,460.21,3a2.77,2.77,0,0,1,.92.16,2.36,2.36,0,0,1,1.3,2.3,5.25,5.25,0,0,1-.23,1.45c-.61,2.07-1.3,1.69-3.07,4-1.84,2.46-2.53,2.07-4,3.76s-2.53,1.77-4.06,2.92a13,13,0,0,1-4.14,1.84l-1.46,2.37c-.77,1.08-1.54,2.92-2.84,5l-2.07,3.91.61.46a36.48,36.48,0,0,0,5.3-1.38c3.75-1.23,7.44-4.29,8.89-5.37,1.61-1.22,4.07-3.68,5.53-4.6,1.3-.84,2.3-2.3,4-4.14,2.07-2.3,3.22-3.53,5.21-5.83a24.21,24.21,0,0,1,4.22-4,10.06,10.06,0,0,1,3.53-2.07c1.3-.31,2.53-1.38,5.06-1.38.39,0,.77-.08,1.08-.08,1.68,0,2,.54,2,.77,0,.54-1.61,1.46-2.07,1.46-.61,0-.92-.85-1.54-.85-.38,0-.92.23-2.37.54-1.84.31-2.92,2-4.3,3.14-1.23,1.08-.54.85-1.84,2.46a14.45,14.45,0,0,0-2.38,3.07A56.18,56.18,0,0,1,467.34,19a36.33,36.33,0,0,1-4.68,5.14c-1.61,1.61-2.76,1.77-4.6,3.45s-2.15,1.31-4.22,2.31-3.38,1.38-4.83,1.91a35.35,35.35,0,0,1-5.6,1.08A39.58,39.58,0,0,0,446,36.36c1.68,1.76,1.61,2.3,3,4s2.68,2.61,5.6,4a14.37,14.37,0,0,0,5.6.92,15.06,15.06,0,0,0,6.21-1.54,8.67,8.67,0,0,1,1.92-.84c.69-.38,1.3-.54,2.07-1a10,10,0,0,1,1.38-.77,2.16,2.16,0,0,1,1.07-.38.91.91,0,0,1,.62.23.57.57,0,0,1,.23.54c0,.23-.31.53-.62.77-.92.53-1.76.76-2.53,1.22-1.07.62-2.22.77-3.37,1.61A9.87,9.87,0,0,1,465,46.25a4.43,4.43,0,0,0-1.61.62,14.44,14.44,0,0,1-5.14,1.68c-.69,0-2.15.39-3.6.39a4.84,4.84,0,0,1-1.46-.15c-5.22-1.31-6.14-3.61-7.29-5a18.69,18.69,0,0,1-2.3-3.53c-.38-.69-.92-1.38-1.46-2.22s-.53-1.61-1.07-2.61a4.76,4.76,0,0,0-1.92-2,15.78,15.78,0,0,1-1.84,3.07c-.84.85-.38.46-1.46,2.61a40.14,40.14,0,0,1-4.14,6,58.62,58.62,0,0,1-4.06,4.53c-1.46,1.23-1.92,1.38-3.76,3.07s-4.14,2.22-6,3.07A15.45,15.45,0,0,1,411.58,57c-.62,0-1.31-.07-2.23-.07s-1.46.15-2.3.15c-2.38,0-4.45-1.3-5.6-1.84-1.38-.62-2.07-1.77-3.14-3.22a11.55,11.55,0,0,1-2.23-6.75c0-1.46.38-2,1.53-2,.62,0,2.31,1.31,2.31,2.23s-.54.92-.54,2.76.69,1.92,1.3,3.37a5,5,0,0,0,2.38,2.76,14.48,14.48,0,0,0,3.45,1.31,3.18,3.18,0,0,0,1.15.23c.92,0,2-.31,3.61-.46a12.82,12.82,0,0,0,5.6-2.3c1.69-1,2.53-2,6.13-5.6,1.08-1.08,2.38-3.15,3.53-4.6s2.15-2.69,6.91-9.59a19.72,19.72,0,0,1-5.14-1.31,2.28,2.28,0,0,1-1.15-2.14,2.69,2.69,0,0,1,.15-.85c.46-1,1.61-1.15,3.14-1.23.39,0,.77-.07,1.23-.07a14.53,14.53,0,0,1,4.83.92l5-7.75a20.26,20.26,0,0,1-3.91.46,52.37,52.37,0,0,1-9.28-1.07c-2.15-.46-3-.62-4.84-1.15A17.46,17.46,0,0,1,416.79,16c-2.76-1.92-4.37-3.91-4.37-7.44s3.45-6.67,4.83-7c1-.23,2-.69,3.38-1.15A8.16,8.16,0,0,1,423.85,0c.84,0,1.76.08,2.84.08,2.3.07,2.3.69,4.21,1.15a5.58,5.58,0,0,1,3.61,2.53,3.29,3.29,0,0,1,.08.92c0,1.07-.31,2.45-1,2.45S433,6.14,431.83,5Zm3.68,25.23L434,29.53a5.11,5.11,0,0,0-1.84-.3c-.84,0-1.46.23-1.46.46,0,1,1.39,1.38,3.84,2.07ZM448.32,17a27,27,0,0,0,3-1.61,30.92,30.92,0,0,0,6.6-6.22,8.89,8.89,0,0,0,1.84-4.14c0-.61-.16-.84-.39-.84a6.94,6.94,0,0,0-1.53.69,6.26,6.26,0,0,0-2.69,2.53c-.92,1.61-1.61,1.76-2.68,3.3s-2.15,3.14-2.84,4.14A20,20,0,0,0,448.32,17Z"/><path class="cls-1" d="M531.62,43.34a18.21,18.21,0,0,1,2.22-1l2.3-1.15a2.09,2.09,0,0,1,1.15-.31,1.37,1.37,0,0,1,.61.16.68.68,0,0,1,.24.61c-.08.23-.62.54-.7.62-.76.46-1.84.92-2.83,1.38A25.3,25.3,0,0,0,531.39,45c-.7.3-2.77.46-3,.76a8.55,8.55,0,0,1-3.6.69c-.85,0-2.07.23-3.07.23a19.44,19.44,0,0,1-3.76-.46,18.24,18.24,0,0,1-2.38-1.38,10.14,10.14,0,0,1-2.22-2.68,11.48,11.48,0,0,1-.84-2.84c0-.15-.08-.23-.16-.23a3.11,3.11,0,0,0-1.3.84c-.85.69-1.38,1.69-2.38,2.15a4.57,4.57,0,0,0-1.92.92c-1.07.69-1.45,1.77-2.76,2.69a24.78,24.78,0,0,1-3.14,2.22c-1.23.61-3,.69-4.45,1.31a3.94,3.94,0,0,1-1.23.23,12.65,12.65,0,0,1-2.53-.46c-1.15-.39-2.53-1.62-2.53-2.69a8.55,8.55,0,0,1,.84-3.68c.69-.77.77-2.3,1.38-3.15a21,21,0,0,0,1.92-3.37A6.46,6.46,0,0,0,495,34c0-.61-.31-.84-1.07-.84a28,28,0,0,0-6.52,2.3c-.85.54-3.92,1.76-4.68,2.3-.92.46-2.69,1.3-3.3,1.53l-5.29,2.3a3.16,3.16,0,0,1-1.23.46,1.09,1.09,0,0,1-1-.69c0-.3.39-.46,1-.76a3,3,0,0,1,.84-.46,3.17,3.17,0,0,0,1.84-.77,12.33,12.33,0,0,1,2.92-1.46l2.3-1.07a21,21,0,0,0,2.3-1.07c1-.47,1.3-.16,2.07-.77.69-.39,7.6-3.76,9.05-4.3a17.46,17.46,0,0,1,4.14-1.38,4.27,4.27,0,0,1,2.84.85,1.92,1.92,0,0,1,.85,1.68,2.56,2.56,0,0,1-.31,1.31,13.59,13.59,0,0,1-1.38,3.07c-.61,1-1.07,2.83-1.61,3.6a9.52,9.52,0,0,0-1.31,3.07,8.27,8.27,0,0,0-.84,2.84,1.23,1.23,0,0,0,1.38,1.15,2.65,2.65,0,0,0,.77-.16,22.33,22.33,0,0,0,2.45-1.53c1-.46,2.84-2.38,3.69-2.91,1-.7,1.22-1.31,1.84-1.31.3,0,.84-.61,1.3-1.15s1-.69,1.61-1.3a24.17,24.17,0,0,0,2.22-2c.85-1,1.62-1.53,2.23-2.38a30.67,30.67,0,0,1,2.3-2.07,2.19,2.19,0,0,1,1.76-.84,1.25,1.25,0,0,1,.54.08c.92.07,1.69.61,1.69,1.22a4,4,0,0,1-.69,2.53,6.43,6.43,0,0,0-.69,3c0,.61.31,1.53.38,2.83a4.49,4.49,0,0,0,1.23,2.31,6.53,6.53,0,0,0,2.76,1,16,16,0,0,0,3.15.23,18.32,18.32,0,0,0,3.6-.69C530.69,43.57,531.23,43.72,531.62,43.34Z"/><path class="cls-1" d="M558.53,48.71c-.84,1.38-2.53,2.3-3.14,2.84a5.18,5.18,0,0,1-2.45,1.38,11,11,0,0,1-3.46.46,6.77,6.77,0,0,1-3-.69c-1.38-.69-1.69-.62-2.07-1.84a7,7,0,0,1-.31-1.38,1.23,1.23,0,0,1,.46-.93,8.22,8.22,0,0,1,2.69-1.3c.77-.15,2.76-.69,3.68-.77a14.83,14.83,0,0,0,2.61-.23,8.26,8.26,0,0,1,1.15-.15,16.13,16.13,0,0,1-.31-3.53,5.45,5.45,0,0,0-.23-2c-.46-.92-.23-3.07-.61-4.68-.08-.46-.08-1-.23-1.61a7.53,7.53,0,0,1-1.69,1.15c-.84.54-3.91,1.76-4.68,2.3-.92.46-2.68,1.3-3.3,1.53l-5.29,2.3a3.1,3.1,0,0,1-1.23.46,1.07,1.07,0,0,1-1-.69c0-.3.38-.46,1-.76a3,3,0,0,1,.85-.46,3.24,3.24,0,0,0,1.84-.77,12.21,12.21,0,0,1,2.91-1.46l2.3-1.07a20.24,20.24,0,0,0,2.31-1.07c1-.47,1.3-.16,2.07-.77.46-.23,2.14-1.31,3.76-2.3-.08-.77-.16-1.61-.16-2.3a5.28,5.28,0,0,1,.16-1.46c.23-.92,1-2.07,1-2.46,0-1.38.69-2.07,2.07-3.45,1.08-1.15,4.61-2.07,5.6-2.07s1.61,1,1.84,1.38a4,4,0,0,1,.62,1.77,2.83,2.83,0,0,1-.31,1.22A4.91,4.91,0,0,1,562.91,27c-.54.61-.85,1.46-1.31,1.84a13.39,13.39,0,0,0-2.3,1.77,4.13,4.13,0,0,1-.84.69,15.82,15.82,0,0,0,.84,5.6c.39.76.46,1.53.46,5.52a14.38,14.38,0,0,1-.3,3.07,6.82,6.82,0,0,0,1.53-.08,20.4,20.4,0,0,0,2.68-.46c.92-.31,1.77.08,2.69-.54.38-.23,2.84-.46,3.3-.69s1.53-.38,2.07-.61a12.82,12.82,0,0,0,1.76-.61c.31-.16,1.77-.62,2-.7s.84-.3,1.07-.61a3,3,0,0,1,1.15-.38.83.83,0,0,1,.61.23c.24.23.31.38.31.53,0,.31-.31.46-.38.54l-1.61.77c-.31.31-1.38.31-1.69.54a12.39,12.39,0,0,1-4.6,1.68l-2.3.39a4.49,4.49,0,0,0-2,.53c-.61.54-4.06.77-7,1.15A8.05,8.05,0,0,1,558.53,48.71Zm-4.29-.85c-3.22.54-6.37.54-7.59,1.46a1.07,1.07,0,0,0-.39.69c0,.23.16.39.39.62a9.1,9.1,0,0,0,3.45.53,4,4,0,0,0,3-1.22A6.93,6.93,0,0,0,554.24,47.86ZM558.38,29c1.15-1,2.15-2,2.46-2.31a5.09,5.09,0,0,0,1.3-3c0-.23-.23-.3-.46-.3a2.22,2.22,0,0,0-1.3.46,7.19,7.19,0,0,0-1.85,2.91A12.1,12.1,0,0,0,558.38,29Z"/><path class="cls-1" d="M579,41.57a7.34,7.34,0,0,1-1.23.46c-.53,0-1.07-.3-1.07-.69s.54-.46,1.07-.76c.24-.31.54-.31.85-.46a3.79,3.79,0,0,0,1.84-.77,11.34,11.34,0,0,1,3.22-1.61,32.34,32.34,0,0,0,4.3-2c.92-.47,1.22-.16,2.07-.77a23.37,23.37,0,0,0,2.38-.92c1.61-.69,1.84-.85,2.3-1.08,3.53-1.61,5.37-2.22,7-2.83,1.15,0,2.31-1.39,3.69-1.39.84,0,1.61-.76,2.6-.76.31,0,.85.07,1.23.07a.54.54,0,0,0,.46-.23,5,5,0,0,1,2.3-.3,4.85,4.85,0,0,1,4.53,4.52,3.48,3.48,0,0,1-.62,2.61c-.46.77-1.22,1.61-2,1.61a.91.91,0,0,1-.77-1,5.56,5.56,0,0,1,1.31-2.3,1.34,1.34,0,0,0,.15-.69,2.3,2.3,0,0,0-.77-1.91,3.12,3.12,0,0,0-2.22-.77c-.23,0-.54.08-.77.08a18.36,18.36,0,0,0-3.83,1.45c-1.92.92-3.07,2.07-4.68,2.76a18.36,18.36,0,0,0-4.76,3.92,15.63,15.63,0,0,0-2.38,3.29c-1.45,2.46-1.53,2.69-1.76,4,0,.23-.08.39-.08.54,0,1,.54,1.3,1.23,1.3s3-1.53,3.68-2.07c.92-.84,2.3-1.76,3.53-2.91a28.48,28.48,0,0,0,1.69-2.38A5.43,5.43,0,0,1,607,37.51a5.91,5.91,0,0,1,2.07-.69,1,1,0,0,1,1.07,1.07,1,1,0,0,1-.07.46,3.36,3.36,0,0,0-.08.85c0,.53.08.92.08,1.45a9.82,9.82,0,0,0,1.3,4,10,10,0,0,0,2.15,1.15,12.22,12.22,0,0,0,3.61.39,7.89,7.89,0,0,0,3.37-.46c.92-.54,1.84-.23,2.68-.77a23.11,23.11,0,0,1,3.15-1.23,11.6,11.6,0,0,1,2-.84c.69-.38,1.31-.54,2.07-1a9.08,9.08,0,0,1,1.31-.77,2.16,2.16,0,0,1,1.07-.38.91.91,0,0,1,.62.23.52.52,0,0,1,.3.54c-.07.23-.46.53-.69.77-.84.53-1.68.76-2.53,1.22-1.07.62-2.15.77-3.45,1.61a4,4,0,0,1-1.84.69c-1.08.46-1.76.46-2,.69-.46.62-3.06,1-3.91,1.38a26.78,26.78,0,0,1-5.52.69,6,6,0,0,1-1.23.08,14.6,14.6,0,0,1-4.29-.61,4.92,4.92,0,0,1-2.92-1.77c-1-1.22-1.84-2.37-1.92-2.37-.3,0-1.38.92-2.53,1.3a35.23,35.23,0,0,0-4.14,2.68,20.7,20.7,0,0,1-4.14,1.69,6.39,6.39,0,0,1-1.46.23,5.6,5.6,0,0,1-1.69-.3,2.74,2.74,0,0,1-2.53-2.84A10.18,10.18,0,0,1,588,42.5a26.41,26.41,0,0,1,2.37-2.92,5.64,5.64,0,0,0,1.77-2.07,12.62,12.62,0,0,1,3.07-2.92c-3.61,1.39-6.75,2.54-7.67,3.07s-2.53,1.23-3.46,1.69C583.31,39.73,580.16,41.11,579,41.57Z"/><path class="cls-1" d="M647.66,32a10.21,10.21,0,0,1,1.84-3.46,31.2,31.2,0,0,0,2.92-5.29A23.64,23.64,0,0,1,654.56,20,6,6,0,0,1,656,18a12,12,0,0,0,1.84-2.53c.62-.77,1.23-1.31,1.61-1.77a1.88,1.88,0,0,0,.77-1.38c.15-.61,3.37-3,4.45-3.91s2.84-1.38,4.68-2.68a5.5,5.5,0,0,1,3-.85,4.86,4.86,0,0,1,2.15.39,5,5,0,0,1,.84,2.6,11.49,11.49,0,0,1-1.07,2.92c-.54.84-1,2.07-1.77,3.53a16.92,16.92,0,0,1-1.61,2.61c-.31.53-1.92,2-2.15,2.37s-1,1.46-1.3,1.54a4.56,4.56,0,0,0-1.69,1.76,21.89,21.89,0,0,1-2.68,2.69c-.85.76-1.46,1.38-2.3,2.07a26.12,26.12,0,0,1-3.3,2.68,34.09,34.09,0,0,1-4.68,2.69c-1.46,3.22-1.77,4.06-2.3,5.06-1.92,3.68-2,4.83-2,5.45,0,.23.08.38.31.38a2.91,2.91,0,0,0,1.23-.69c1.07-.77,1.22-.46,1.91-1.31A4.17,4.17,0,0,1,653.64,40c.62-.08.77-.54,1.38-1.15a32.51,32.51,0,0,1,2.76-2.45c.39-.31,1.69-1.62,2.31-2.23s2.07-1,2.83-1.92a4.07,4.07,0,0,1,1.85-1.91,19.45,19.45,0,0,0,3.37-1.92,3.67,3.67,0,0,1,2.45-.62c1.54,0,3.38,2,3.38,3.76,0,.92-1,2.53-1.84,3.61A6.08,6.08,0,0,1,669.6,37a4.91,4.91,0,0,1-2.23,1.54c-1.15.38-2.14,1.07-3.22,1.38s-2,.61-2,1.15.92,1.3,1.53,1.69a16,16,0,0,0,2.53.92c.23.15.39.23,1.31.3a14.36,14.36,0,0,0,2.3.46,2.73,2.73,0,0,0,.84.08c.61,0,1.38-.08,2.15-.15,1.07-.08,2.07-.31,2.61-.31a5.79,5.79,0,0,0,2-.46c.31-.15.77-.15.92-.23,1.23-.38,2.46-.77,3.61-1.23a14.44,14.44,0,0,0,1.76-1,3.33,3.33,0,0,1,1.15-.3c.39,0,.62.23.62.76,0,.23-.62.54-1.16.85,0,0-.15.15-.22.15a38.34,38.34,0,0,1-4.84,2.3c-1.38.46-4.06,1.23-5.6,1.54a44,44,0,0,1-5.06.38c-1.61,0-3.45-.46-4.3-.46s-1.22-.61-2.3-.84a12.37,12.37,0,0,1-3.45-1.77c-.69-.53-1-.92-1-1.53a3.49,3.49,0,0,1,.39-1.31c.84-1.45,1.92-.84,2.91-1.3A8.15,8.15,0,0,0,663,38.51c.61-.31.84-1,1.46-1.31s1.23-1.07,2-1.45.39-.85,1.23-1.92a3.53,3.53,0,0,0,.92-2,1.22,1.22,0,0,0-1.07-1.15,3.11,3.11,0,0,0-1.46.69c-1,.77-1.61,1.31-2.38,1.84s-1.84,1.38-2.45,1.84-1.31.62-1.38,1.16a5.43,5.43,0,0,1-2,2.14c-.77.54-1.38,1.61-2.07,1.84s-.38.69-1.38,1.54c-.23.15-3.76,3-3.84,3.22-.38.84-2.07,1.61-2.83,2.3s-2,2-2.76,2-1.54-.23-1.77-.7a6.67,6.67,0,0,1-.69-2.45c0-1.69,1.15-3.45,1.84-5.22.46-1.45,1.08-3.83,1.31-4.6-1.23.54-2.54,1.23-3,1.46-.84.46-2.68,1.3-3.22,1.53-.69.39-2.68,1.08-3.37,1.38s-1.23.62-2,.92a4.39,4.39,0,0,1-1.23.46,1.12,1.12,0,0,1-1.07-.69c0-.3.54-.46,1.07-.76.31-.31.7-.31.85-.46a3.83,3.83,0,0,0,1.92-.77c.15-.31,1.61-.92,3.45-1.69,2.38-1,3.22-1.53,4.06-1.91s2.69-1.08,3.46-1.62C646.59,34.13,647.43,32.6,647.66,32Zm8.9-3.38a24.69,24.69,0,0,1,2.68-2.22A22.73,22.73,0,0,0,662,24a32.3,32.3,0,0,0,2.38-2.3c.61-.77,2.15-2.84,3.07-3.76a30.39,30.39,0,0,0,2.15-2.61c.61-.84.84-1.46,1.22-1.84a11.24,11.24,0,0,0,.92-2.22,10.41,10.41,0,0,0,.77-2.23,2,2,0,0,0-.69-1.15c-.54,0-1.23.69-1.69,1s-1.38,1.69-2.14,1.84-.46,1.07-1.77,2.15a31.58,31.58,0,0,0-3.6,3.83,27,27,0,0,0-2.07,2c-.39.38-.31.92-.39,1.07a10.31,10.31,0,0,0-1.46,2.3c-.22.77-1.22,1.61-1.68,2.53-.69.85-.31,1.31-3.38,6A10.44,10.44,0,0,0,656.56,28.61Z"/><path class="cls-1" d="M686,41.57a7.68,7.68,0,0,1-1.23.46c-.54,0-1.07-.3-1.07-.69s.53-.46,1.07-.76c.23-.31.54-.31.84-.46a3.88,3.88,0,0,0,1.85-.77,11.18,11.18,0,0,1,3.22-1.61,31.29,31.29,0,0,0,4.29-2c.92-.47,1.23-.16,2.07-.77a22.46,22.46,0,0,0,2.38-.92c1.61-.69,1.84-.85,2.3-1.08a75.88,75.88,0,0,1,7.06-2.83c1.15,0,2.3-1.39,3.68-1.39.85,0,1.61-.76,2.61-.76.31,0,.84.07,1.23.07a.54.54,0,0,0,.46-.23,5,5,0,0,1,2.3-.3,4.85,4.85,0,0,1,4.52,4.52,3.52,3.52,0,0,1-.61,2.61c-.46.77-1.23,1.61-2,1.61a.9.9,0,0,1-.77-1,5.62,5.62,0,0,1,1.3-2.3,1.23,1.23,0,0,0,.16-.69,2.3,2.3,0,0,0-.77-1.91,3.14,3.14,0,0,0-2.22-.77c-.24,0-.54.08-.77.08a18.18,18.18,0,0,0-3.84,1.45c-1.92.92-3.07,2.07-4.68,2.76a18.47,18.47,0,0,0-4.75,3.92,15.27,15.27,0,0,0-2.38,3.29c-1.46,2.46-1.53,2.69-1.76,4,0,.23-.08.39-.08.54,0,1,.54,1.3,1.23,1.3s3-1.53,3.68-2.07c.92-.84,2.3-1.76,3.53-2.91a26.87,26.87,0,0,0,1.68-2.38A5.45,5.45,0,0,1,714,37.51a5.91,5.91,0,0,1,2.07-.69,1,1,0,0,1,1.07,1.07.92.92,0,0,1-.08.46,3.83,3.83,0,0,0-.07.85c0,.53.07.92.07,1.45a9.69,9.69,0,0,0,1.31,4,9.75,9.75,0,0,0,2.15,1.15,12.19,12.19,0,0,0,3.6.39,7.91,7.91,0,0,0,3.38-.46c.92-.54,1.84-.23,2.68-.77a22.61,22.61,0,0,1,3.15-1.23,11,11,0,0,1,2-.84c.69-.38,1.3-.54,2.07-1a8.55,8.55,0,0,1,1.31-.77,2.12,2.12,0,0,1,1.07-.38.87.87,0,0,1,.61.23.51.51,0,0,1,.31.54c-.08.23-.46.53-.69.77-.84.53-1.69.76-2.53,1.22-1.08.62-2.15.77-3.45,1.61a4,4,0,0,1-1.84.69c-1.08.46-1.77.46-2,.69-.46.62-3.07,1-3.91,1.38a26.87,26.87,0,0,1-5.52.69,6,6,0,0,1-1.23.08,14.67,14.67,0,0,1-4.3-.61,4.89,4.89,0,0,1-2.91-1.77c-1-1.22-1.84-2.37-1.92-2.37-.31,0-1.38.92-2.53,1.3a34.42,34.42,0,0,0-4.14,2.68,20.7,20.7,0,0,1-4.14,1.69,6.47,6.47,0,0,1-1.46.23,5.6,5.6,0,0,1-1.69-.3,2.73,2.73,0,0,1-2.53-2.84A10.19,10.19,0,0,1,695,42.5a27.75,27.75,0,0,1,2.38-2.92,5.69,5.69,0,0,0,1.76-2.07,13,13,0,0,1,3.07-2.92c-3.6,1.39-6.75,2.54-7.67,3.07s-2.53,1.23-3.45,1.69S687.16,41.11,686,41.57Z"/></g></g></svg>