<svg xmlns="http://www.w3.org/2000/svg" viewBox="0 0 656.26 87.22"><defs><style>.cls-1{fill:none;stroke:lime;stroke-linecap:round;stroke-linejoin:round;stroke-width:6px;}</style></defs><g id="レイヤー_2" data-name="レイヤー 2"><g id="base"><path d="M39.21,38.79a8.53,8.53,0,0,0-1.74-1.68,7.24,7.24,0,0,0-4-1.41,13,13,0,0,0-1.34-.13,7.36,7.36,0,0,0-3,.74c-1.47.67-1.74,1.47-2.21,2.88A6.26,6.26,0,0,0,26.61,41a6.16,6.16,0,0,0,.2,1.47,9,9,0,0,0,1.68,3.42A12.37,12.37,0,0,0,31.64,49c1.74,1.21,6.83,3,11.59,3a19,19,0,0,0,5.49-.74,27.33,27.33,0,0,1,2.48-3.35C52,47,52.54,46,53.88,44.35a39.75,39.75,0,0,1,5.9-5.83A7.9,7.9,0,0,1,64,37a2.4,2.4,0,0,1,.8.14,2.06,2.06,0,0,1,1.14,2,4.7,4.7,0,0,1-.2,1.27c-.54,1.81-1.14,1.47-2.68,3.48s-2.21,1.81-3.48,3.29S57.37,48.77,56,49.77a11.13,11.13,0,0,1-3.62,1.61l-1.28,2.08c-.67.94-1.34,2.54-2.47,4.35l-1.81,3.42.53.4A31.49,31.49,0,0,0,52,60.43c3.29-1.08,6.5-3.76,7.78-4.69,1.4-1.08,3.55-3.22,4.82-4s2-2,3.49-3.62c1.8-2,2.81-3.08,4.55-5.09a21.32,21.32,0,0,1,3.69-3.49,8.6,8.6,0,0,1,3.08-1.81c1.14-.27,2.21-1.2,4.42-1.2.34,0,.67-.07.94-.07,1.47,0,1.74.47,1.74.67,0,.47-1.41,1.27-1.81,1.27s-.8-.73-1.34-.73c-.33,0-.8.2-2.08.47-1.6.26-2.54,1.74-3.75,2.74s-.47.74-1.61,2.15a12.62,12.62,0,0,0-2.07,2.68,50.3,50.3,0,0,1-3.62,5.36,33.57,33.57,0,0,1-4.09,4.49c-1.4,1.4-2.41,1.54-4,3s-1.87,1.14-3.68,2-2.95,1.21-4.22,1.68a30.26,30.26,0,0,1-4.89.93,31.73,31.73,0,0,0,2.27,3c1.48,1.54,1.41,2,2.62,3.48a12,12,0,0,0,4.89,3.49A12.61,12.61,0,0,0,64,74a13.22,13.22,0,0,0,5.43-1.34,7.58,7.58,0,0,1,1.67-.74c.6-.33,1.14-.47,1.81-.87a8.39,8.39,0,0,1,1.21-.67,1.75,1.75,0,0,1,.93-.33.74.74,0,0,1,.54.2.49.49,0,0,1,.2.47c0,.2-.27.47-.54.67-.8.47-1.54.67-2.21,1.07a23.62,23.62,0,0,0-2.94,1.41,9,9,0,0,1-1.95,1,3.74,3.74,0,0,0-1.4.54,12.81,12.81,0,0,1-4.49,1.47c-.61,0-1.88.34-3.15.34A4,4,0,0,1,57.83,77c-4.55-1.14-5.36-3.15-6.36-4.35a16.35,16.35,0,0,1-2-3.08c-.34-.61-.8-1.21-1.27-2s-.47-1.4-.94-2.28a4.16,4.16,0,0,0-1.68-1.74A14.56,14.56,0,0,1,44,66.32c-.73.74-.33.4-1.27,2.28a34.55,34.55,0,0,1-3.62,5.23,47.92,47.92,0,0,1-3.55,4c-1.27,1.07-1.67,1.21-3.28,2.68S28.62,82.4,27,83.14a13.32,13.32,0,0,1-5.49,1.07c-.54,0-1.14-.07-1.94-.07s-1.28.14-2,.14a11.23,11.23,0,0,1-4.89-1.61c-1.21-.54-1.81-1.54-2.75-2.81A10.11,10.11,0,0,1,8,74c0-1.27.33-1.74,1.34-1.74.53,0,2,1.14,2,1.94s-.47.81-.47,2.41.6,1.68,1.14,3a4.32,4.32,0,0,0,2.07,2.41,12.74,12.74,0,0,0,3,1.14,2.55,2.55,0,0,0,1,.2c.81,0,1.74-.26,3.15-.4a11.08,11.08,0,0,0,4.89-2C27.62,80,28.35,79.12,31.5,76c.94-.94,2.08-2.75,3.08-4s1.88-2.34,6-8.37a17.65,17.65,0,0,1-4.48-1.14,2,2,0,0,1-1-1.88,2.65,2.65,0,0,1,.13-.74c.41-.87,1.41-1,2.75-1.07.34,0,.67-.07,1.07-.07a12.82,12.82,0,0,1,4.22.81l4.36-6.77a17.73,17.73,0,0,1-3.42.4,45.9,45.9,0,0,1-8.1-.93c-1.88-.41-2.62-.54-4.23-1a15.08,15.08,0,0,1-5.82-2.75c-2.42-1.67-3.82-3.41-3.82-6.5s3-5.83,4.22-6.09c.87-.2,1.74-.61,2.95-1a7.16,7.16,0,0,1,2.81-.4c.74,0,1.54.07,2.48.07,2,.06,2,.6,3.68,1a4.85,4.85,0,0,1,3.15,2.21,2.91,2.91,0,0,1,.07.81c0,.93-.27,2.14-.87,2.14S40.21,39.79,39.21,38.79Zm3.21,22-1.34-.6a4.28,4.28,0,0,0-1.6-.27c-.74,0-1.28.2-1.28.4,0,.87,1.21,1.21,3.35,1.81ZM53.61,49.3a21.57,21.57,0,0,0,2.62-1.4A27.32,27.32,0,0,0,62,42.47a7.86,7.86,0,0,0,1.61-3.62c0-.53-.14-.73-.34-.73s-.6.26-1.34.6a5.42,5.42,0,0,0-2.34,2.21c-.81,1.41-1.41,1.54-2.35,2.88s-1.88,2.75-2.48,3.62A18.59,18.59,0,0,0,53.61,49.3ZM95.49,77.91c-.27,0-.54.07-.81.07a18.17,18.17,0,0,1-4-.54,5.23,5.23,0,0,1-2.48-1.67c-.53-.74-1.6-1.88-1.6-2.75s-.27-2-.27-2.74a17.64,17.64,0,0,0,.4-1.81A7.24,7.24,0,0,1,88.52,65c-1.54.87-4.22,2-4.89,2.41s-2.35,1.14-2.82,1.34c-.73.34-2.07.81-2.94,1.28-.54.27-1.21.47-1.68.73a6.71,6.71,0,0,1-1.07.41c-.47,0-.94-.27-.94-.61s.47-.4.94-.67c.2-.26.47-.26.74-.4a3.3,3.3,0,0,0,1.6-.67A16.5,16.5,0,0,1,80,67.53a10.83,10.83,0,0,0,2-.94,21.62,21.62,0,0,1,2-.94c.8-.4,1-.2,1.81-.67,1-.6,5.09-2.81,6.77-3.62a48.07,48.07,0,0,1,4.75-2.14,6.82,6.82,0,0,1,2.08-.33,6.31,6.31,0,0,1,1.74.2,2.37,2.37,0,0,1,1.14,2.21,3.84,3.84,0,0,1-1.14,2.41,15.48,15.48,0,0,1-3.28,3,34.82,34.82,0,0,1-3.75,2.35,11.18,11.18,0,0,1-2.75,1.14c0,.4.13.8.13,1.27a8.72,8.72,0,0,0,1.28,2.88,6.23,6.23,0,0,0,1.61.87,8.37,8.37,0,0,0,2.27.2,12.13,12.13,0,0,0,3.89-.33,15.61,15.61,0,0,0,2.55-.74c.8-.33,1.6-.13,2.34-.6a27.88,27.88,0,0,1,2.81-1.14A9.68,9.68,0,0,1,110,72c.4-.2.13-.14,1-.61a7,7,0,0,0,1-.46,6.42,6.42,0,0,0,.87-.61,2.24,2.24,0,0,1,.94-.27,1,1,0,0,1,.6.21.83.83,0,0,1,.2.46.6.6,0,0,1-.27.47l-1.4.67c-.27.27-.81.47-1,.74-.94.6-1.87.54-3,1.21a6.44,6.44,0,0,1-1.74.67c-.87.33-1.61.4-1.74.53-.33.61-2.55,1.14-3.42,1.41A22.47,22.47,0,0,1,95.49,77.91ZM91.67,68.8A13.2,13.2,0,0,0,94,67.73c1.08-.8,2.21-1.54,2.48-1.74s2-2.15,2.28-2.55a3,3,0,0,0,.6-1.67.69.69,0,0,0-.73-.54,1.93,1.93,0,0,0-1,.4,24.48,24.48,0,0,0-2.34,1.95A13.23,13.23,0,0,0,91.94,68,2.87,2.87,0,0,0,91.67,68.8Zm45.69,8.51c-.4.47-1.34.2-2.14.6a6.16,6.16,0,0,1-1.34.14,15.18,15.18,0,0,1-2.41-.2,5.63,5.63,0,0,1-2.42-1.54,4.55,4.55,0,0,1-1-2.42c0-.47-.07-.87-.07-1.27a3.88,3.88,0,0,1,.27-1.61c.47-.73,1.14-2.61,1.67-2.88a4.92,4.92,0,0,0,1-1.27c.13-.27.74-1.07,1.07-1.68a1.94,1.94,0,0,0,.47-1.07.62.62,0,0,0-.6-.67,8.15,8.15,0,0,0-2.75.81c-.94.46-2,.8-2.68,1.13s-3.42,1.55-4.09,2-2.34,1.14-2.88,1.34l-4.62,2a2.74,2.74,0,0,1-1.07.41.94.94,0,0,1-.87-.61c0-.26.33-.4.87-.67a3.2,3.2,0,0,1,.73-.4,2.79,2.79,0,0,0,1.61-.67,10.63,10.63,0,0,1,2.55-1.27,35.94,35.94,0,0,0,4-1.88c.87-.4,1.14-.13,1.81-.67.33-.2,1.94-1.2,3.62-2,2.21-1.07,3.35-1.47,3.75-1.74A7.5,7.5,0,0,1,135.62,60a3.86,3.86,0,0,1,2.28.74,2.17,2.17,0,0,1,.94,2.08c0,1.41-1.88,2.81-1.88,3.48-.54.61-.6,1.14-1.21,1.81a7.45,7.45,0,0,0-1.6,2.21,11.25,11.25,0,0,0-1.08,4.36c0,.8,1.08,1.27,1.61,1.27s1,.07,1.48.07a2.29,2.29,0,0,0,1.2-.27,17.44,17.44,0,0,0,2.28-.74,8.82,8.82,0,0,0,2.48-.67c.74-.33,1.61-.13,2.28-.6.4-.34,2.41-.87,2.81-1.14a11.87,11.87,0,0,1,1.68-.6c.4-.2.2-.14,1-.61a18.78,18.78,0,0,0,1.88-1,2.64,2.64,0,0,1,1-.34.73.73,0,0,1,.74.67.6.6,0,0,1-.27.47,21.37,21.37,0,0,0-2.34,1.41c-.94.74-2,.54-3,1.21a7.37,7.37,0,0,1-1.67.67c-.88.33-1.61.4-1.81.53-.34.61-2.62.87-3.42,1.21C139.37,77,137.76,76.91,137.36,77.31ZM145.8,47a1.6,1.6,0,0,1-.6,1.47c-.67.27-1.14.4-1.74.67a6.55,6.55,0,0,1-1.54.34,2,2,0,0,1-1.61-1,3.15,3.15,0,0,1,.47-1.54c.2-.34.4-.67.8-.74.87-.2,1.54-.87,2.41-.87A1.59,1.59,0,0,1,145.8,47Zm25.6,30a10.82,10.82,0,0,1-2.75,2.47,4.48,4.48,0,0,1-2.14,1.21,9.35,9.35,0,0,1-3,.4,5.92,5.92,0,0,1-2.61-.6c-1.21-.6-1.48-.54-1.81-1.61a5.36,5.36,0,0,1-.27-1.2,1,1,0,0,1,.4-.81,7.05,7.05,0,0,1,2.35-1.14c.67-.13,2.41-.6,3.21-.67a12.89,12.89,0,0,0,2.28-.2,5.2,5.2,0,0,1,1-.13,14.12,14.12,0,0,1-.27-3.08,4.85,4.85,0,0,0-.2-1.75c-.4-.8-.2-2.68-.54-4.08-.07-.41-.07-.87-.2-1.41a6.14,6.14,0,0,1-1.47,1c-.74.47-3.42,1.55-4.09,2s-2.35,1.14-2.88,1.34l-4.62,2a2.73,2.73,0,0,1-1.08.41,1,1,0,0,1-.87-.61c0-.26.34-.4.87-.67a3.24,3.24,0,0,1,.74-.4,2.83,2.83,0,0,0,1.61-.67,10.63,10.63,0,0,1,2.55-1.27l2-.94a16.28,16.28,0,0,0,2-.94c.87-.4,1.13-.13,1.8-.67.41-.2,1.88-1.14,3.29-2-.07-.67-.14-1.4-.14-2a4.57,4.57,0,0,1,.14-1.27c.2-.8.87-1.81.87-2.14,0-1.21.6-1.81,1.81-3,.94-1,4-1.81,4.89-1.81s1.41.87,1.61,1.21a3.51,3.51,0,0,1,.53,1.54,2.39,2.39,0,0,1-.27,1.07,4.18,4.18,0,0,1-.93,1.47c-.47.54-.74,1.28-1.14,1.61a11.38,11.38,0,0,0-2,1.54,3.43,3.43,0,0,1-.74.61,13.66,13.66,0,0,0,.74,4.89c.33.67.4,1.34.4,4.82a12.63,12.63,0,0,1-.27,2.68,6,6,0,0,0,1.34-.07,16.57,16.57,0,0,0,2.35-.4c.8-.27,1.54.07,2.34-.47.34-.2,2.48-.4,2.88-.6s1.34-.33,1.81-.54a10.28,10.28,0,0,0,1.54-.53c.27-.14,1.54-.54,1.74-.6s.74-.27.94-.54a2.63,2.63,0,0,1,1-.34.72.72,0,0,1,.53.21c.2.2.27.33.27.46s-.27.41-.33.47l-1.41.67c-.27.27-1.21.27-1.47.47a10.73,10.73,0,0,1-4,1.48l-2,.33a4.07,4.07,0,0,0-1.75.47c-.53.47-3.55.67-6.09,1A8.64,8.64,0,0,1,171.4,77Zm-3.76-.74c-2.81.47-5.56.47-6.63,1.27a.92.92,0,0,0-.33.6c0,.21.13.34.33.54a7.85,7.85,0,0,0,3,.47,3.56,3.56,0,0,0,2.61-1.07A5.82,5.82,0,0,0,167.64,76.24Zm3.62-16.48c1-.87,1.88-1.75,2.15-2a4.49,4.49,0,0,0,1.14-2.62c0-.2-.2-.26-.41-.26a1.92,1.92,0,0,0-1.13.4,6.18,6.18,0,0,0-1.61,2.54A9.58,9.58,0,0,0,171.26,59.76Zm68.21,12.53a13.94,13.94,0,0,1,1.94-.88l2-1a1.85,1.85,0,0,1,1-.27,1.18,1.18,0,0,1,.53.14.6.6,0,0,1,.2.53c-.06.2-.53.47-.6.54-.67.4-1.61.8-2.48,1.2a23.56,23.56,0,0,0-2.81,1.21c-.6.27-2.41.4-2.61.67a7.57,7.57,0,0,1-3.15.6c-.74,0-1.81.2-2.68.2a17,17,0,0,1-3.29-.4,17,17,0,0,1-2.07-1.2,9.15,9.15,0,0,1-1.95-2.35,10,10,0,0,1-.73-2.48c0-.13-.07-.2-.14-.2a2.73,2.73,0,0,0-1.14.74c-.73.6-1.2,1.47-2.07,1.87a3.87,3.87,0,0,0-1.68.81c-.94.6-1.27,1.54-2.41,2.34a22.06,22.06,0,0,1-2.75,2c-1.07.53-2.61.6-3.88,1.13a3.26,3.26,0,0,1-1.08.21,10.45,10.45,0,0,1-2.21-.41c-1-.33-2.21-1.4-2.21-2.34a7.56,7.56,0,0,1,.74-3.22c.6-.67.67-2,1.2-2.74a18.92,18.92,0,0,0,1.68-3,5.77,5.77,0,0,0,.6-1.88c0-.53-.27-.74-.94-.74a24.74,24.74,0,0,0-5.69,2c-.74.47-3.42,1.55-4.09,2s-2.34,1.14-2.88,1.34l-4.62,2a2.74,2.74,0,0,1-1.07.41.94.94,0,0,1-.87-.61c0-.26.33-.4.87-.67a3.2,3.2,0,0,1,.73-.4,2.83,2.83,0,0,0,1.61-.67A10.63,10.63,0,0,1,193,67.53l2-.94a16.88,16.88,0,0,0,2-.94c.87-.4,1.14-.13,1.81-.67.6-.33,6.63-3.28,7.9-3.75A15.52,15.52,0,0,1,210.39,60a3.79,3.79,0,0,1,2.48.74,1.7,1.7,0,0,1,.74,1.48,2.17,2.17,0,0,1-.27,1.13,11.56,11.56,0,0,1-1.21,2.68c-.53.88-.94,2.48-1.4,3.15a8.12,8.12,0,0,0-1.14,2.68,7.12,7.12,0,0,0-.74,2.48,1.08,1.08,0,0,0,1.21,1,2.36,2.36,0,0,0,.67-.14,20.42,20.42,0,0,0,2.14-1.34c.87-.4,2.48-2.07,3.22-2.54s1.07-1.14,1.6-1.14c.27,0,.74-.54,1.14-1s.87-.6,1.41-1.14a18.51,18.51,0,0,0,1.94-1.74c.74-.87,1.41-1.34,1.95-2.07a22,22,0,0,1,2-1.81,1.89,1.89,0,0,1,1.54-.74,1.12,1.12,0,0,1,.47.07c.8.06,1.47.53,1.47,1.07a3.51,3.51,0,0,1-.6,2.21,5.52,5.52,0,0,0-.61,2.61c0,.54.27,1.34.34,2.48a3.84,3.84,0,0,0,1.07,2,5.64,5.64,0,0,0,2.41.87,14,14,0,0,0,2.75.2,16,16,0,0,0,3.15-.6C238.67,72.49,239.13,72.62,239.47,72.29Zm17.82-9.92a9,9,0,0,1,1.61-3,26.57,26.57,0,0,0,2.54-4.62,21.7,21.7,0,0,1,1.88-2.81,5.2,5.2,0,0,1,1.27-1.81,10.54,10.54,0,0,0,1.61-2.21c.54-.67,1.07-1.14,1.41-1.54a1.65,1.65,0,0,0,.67-1.21c.13-.54,3-2.61,3.88-3.42s2.48-1.2,4.09-2.34a4.84,4.84,0,0,1,2.62-.74,4.21,4.21,0,0,1,1.87.34,4.38,4.38,0,0,1,.74,2.27,10,10,0,0,1-.94,2.55c-.47.74-.87,1.81-1.54,3.08a13.63,13.63,0,0,1-1.41,2.28c-.27.47-1.67,1.74-1.87,2.08s-.88,1.27-1.14,1.34a3.94,3.94,0,0,0-1.48,1.54,19.12,19.12,0,0,1-2.34,2.34c-.74.67-1.28,1.21-2,1.81a23.23,23.23,0,0,1-2.88,2.35A31,31,0,0,1,261.78,63c-1.27,2.82-1.54,3.55-2,4.42-1.68,3.22-1.74,4.23-1.74,4.76,0,.2.06.34.27.34s.53-.2,1.07-.61c.94-.67,1.07-.4,1.67-1.14a3.63,3.63,0,0,1,1.48-1.34c.53-.06.67-.46,1.2-1a27,27,0,0,1,2.41-2.14c.34-.27,1.48-1.41,2-2s1.81-.87,2.48-1.67A3.6,3.6,0,0,1,272.23,61a17.13,17.13,0,0,0,2.95-1.67,3.2,3.2,0,0,1,2.14-.54c1.34,0,2.95,1.74,2.95,3.28a7,7,0,0,1-1.61,3.15,5.24,5.24,0,0,1-2.21,1.54,4.2,4.2,0,0,1-1.94,1.34c-1,.34-1.88.94-2.81,1.21s-1.75.54-1.75,1,.81,1.13,1.34,1.47a13.44,13.44,0,0,0,2.21.8c.21.14.34.2,1.14.27a12.7,12.7,0,0,0,2,.4,2.42,2.42,0,0,0,.74.07c.54,0,1.21-.07,1.88-.13.93-.07,1.81-.27,2.27-.27a5.14,5.14,0,0,0,1.75-.4,4.84,4.84,0,0,1,.8-.2c1.07-.34,2.15-.67,3.15-1.08a12.12,12.12,0,0,0,1.54-.87,2.92,2.92,0,0,1,1-.27c.33,0,.53.21.53.67,0,.21-.53.47-1,.74,0,0-.14.14-.2.14a36.61,36.61,0,0,1-4.22,2c-1.21.4-3.56,1.07-4.9,1.34a38.77,38.77,0,0,1-4.42.33c-1.41,0-3-.4-3.75-.4s-1.07-.54-2-.74a10.85,10.85,0,0,1-3-1.54c-.6-.47-.87-.8-.87-1.34a3.09,3.09,0,0,1,.34-1.14c.74-1.27,1.67-.74,2.54-1.14a6.75,6.75,0,0,0,1.88-.94c.54-.26.74-.87,1.27-1.13s1.08-.94,1.75-1.28.33-.73,1.07-1.67a3.1,3.1,0,0,0,.8-1.74,1.07,1.07,0,0,0-.94-1,2.75,2.75,0,0,0-1.27.6c-.87.67-1.41,1.14-2.08,1.61s-1.6,1.21-2.14,1.61-1.14.54-1.21,1a4.66,4.66,0,0,1-1.74,1.88c-.67.47-1.2,1.41-1.81,1.61s-.33.6-1.2,1.34c-.2.13-3.29,2.61-3.35,2.81-.34.74-1.81,1.41-2.48,2s-1.74,1.74-2.41,1.74-1.34-.2-1.55-.6a5.85,5.85,0,0,1-.6-2.14c0-1.48,1-3,1.61-4.56.4-1.27.94-3.35,1.14-4-1.07.47-2.21,1.07-2.61,1.27-.74.41-2.35,1.14-2.82,1.34s-2.34.94-3,1.21a18.06,18.06,0,0,1-1.74.8,3.79,3.79,0,0,1-1.07.41,1,1,0,0,1-.94-.61c0-.26.47-.4.94-.67.27-.26.6-.26.74-.4a3.3,3.3,0,0,0,1.67-.67,11.84,11.84,0,0,1,3-1.47c2.07-.87,2.81-1.34,3.55-1.68s2.34-.94,3-1.4C256.35,64.25,257.09,62.91,257.29,62.37Zm7.77-2.95a22.66,22.66,0,0,1,2.35-1.94,20.7,20.7,0,0,0,2.41-2.08c.67-.53,1.47-1.41,2.08-2s1.87-2.48,2.68-3.28a26.25,26.25,0,0,0,1.87-2.28c.54-.74.74-1.27,1.08-1.61a10.13,10.13,0,0,0,.8-1.94,9.56,9.56,0,0,0,.67-1.94,1.74,1.74,0,0,0-.6-1c-.47,0-1.08.6-1.48.87s-1.2,1.48-1.87,1.61-.41.94-1.55,1.88A27.64,27.64,0,0,0,270.36,49a20.51,20.51,0,0,0-1.81,1.74c-.34.33-.27.8-.34.94a8.54,8.54,0,0,0-1.27,2c-.2.67-1.07,1.4-1.48,2.21-.6.73-.26,1.14-2.94,5.22A9.08,9.08,0,0,0,265.06,59.42Zm45,18.49c-.27,0-.54.07-.81.07a18.09,18.09,0,0,1-4-.54,5.23,5.23,0,0,1-2.48-1.67c-.53-.74-1.61-1.88-1.61-2.75s-.26-2-.26-2.74a17.64,17.64,0,0,0,.4-1.81A7.24,7.24,0,0,1,303.12,65c-1.54.87-4.22,2-4.89,2.41s-2.35,1.14-2.82,1.34c-.73.34-2.08.81-3,1.28-.53.27-1.2.47-1.67.73a6.71,6.71,0,0,1-1.07.41c-.47,0-.94-.27-.94-.61s.47-.4.94-.67c.2-.26.47-.26.73-.4a3.29,3.29,0,0,0,1.61-.67,16.5,16.5,0,0,1,2.55-1.27,10.83,10.83,0,0,0,2-.94,21.62,21.62,0,0,1,2-.94c.8-.4,1-.2,1.81-.67,1-.6,5.09-2.81,6.76-3.62A49,49,0,0,1,312,59.22a6.77,6.77,0,0,1,2.08-.33,6.31,6.31,0,0,1,1.74.2,2.39,2.39,0,0,1,1.14,2.21,3.89,3.89,0,0,1-1.14,2.41,15.73,15.73,0,0,1-3.28,3,35.83,35.83,0,0,1-3.75,2.35A11.34,11.34,0,0,1,306,70.21c0,.4.13.8.13,1.27a8.72,8.72,0,0,0,1.28,2.88,6.37,6.37,0,0,0,1.6.87,8.45,8.45,0,0,0,2.28.2,12.18,12.18,0,0,0,3.89-.33,15.14,15.14,0,0,0,2.54-.74c.81-.33,1.61-.13,2.35-.6a26.09,26.09,0,0,1,2.81-1.14,9.68,9.68,0,0,1,1.68-.6c.4-.2.13-.14,1-.61a7,7,0,0,0,1-.46,6.42,6.42,0,0,0,.87-.61,2.24,2.24,0,0,1,.94-.27,1,1,0,0,1,.6.21.91.91,0,0,1,.2.46.6.6,0,0,1-.27.47l-1.4.67c-.27.27-.81.47-1,.74-.94.6-1.88.54-2.95,1.21a6.44,6.44,0,0,1-1.74.67c-.87.33-1.61.4-1.74.53-.34.61-2.55,1.14-3.42,1.41A22.47,22.47,0,0,1,310.09,77.91Zm-3.82-9.11a13.2,13.2,0,0,0,2.34-1.07c1.07-.8,2.21-1.54,2.48-1.74s2-2.15,2.28-2.55a3,3,0,0,0,.6-1.67.7.7,0,0,0-.74-.54,1.94,1.94,0,0,0-1,.4,24.9,24.9,0,0,0-2.35,1.95A13.49,13.49,0,0,0,306.53,68,2.5,2.5,0,0,0,306.27,68.8Zm78.92-30a8.27,8.27,0,0,0-1.74-1.68,7.21,7.21,0,0,0-4-1.41,13,13,0,0,0-1.34-.13,7.4,7.4,0,0,0-3,.74c-1.47.67-1.74,1.47-2.21,2.88A6.22,6.22,0,0,0,372.6,41a5.69,5.69,0,0,0,.2,1.47,9,9,0,0,0,1.67,3.42A12.54,12.54,0,0,0,377.62,49c1.74,1.21,6.84,3,11.59,3a19.17,19.17,0,0,0,5.5-.74,27.56,27.56,0,0,1,2.47-3.35c.81-.87,1.35-1.88,2.69-3.48a40.15,40.15,0,0,1,5.89-5.83A7.93,7.93,0,0,1,410,37a2.41,2.41,0,0,1,.81.14,2.08,2.08,0,0,1,1.14,2,4.37,4.37,0,0,1-.21,1.27c-.53,1.81-1.13,1.47-2.68,3.48s-2.21,1.81-3.48,3.29-2.21,1.54-3.55,2.54a11.13,11.13,0,0,1-3.62,1.61l-1.27,2.08c-.67.94-1.34,2.54-2.48,4.35l-1.81,3.42.54.4a32.15,32.15,0,0,0,4.62-1.2c3.28-1.08,6.5-3.76,7.77-4.69,1.41-1.08,3.55-3.22,4.83-4s2-2,3.48-3.62c1.81-2,2.81-3.08,4.56-5.09a21,21,0,0,1,3.68-3.49,8.77,8.77,0,0,1,3.08-1.81c1.14-.27,2.21-1.2,4.42-1.2.34,0,.67-.07.94-.07,1.48,0,1.75.47,1.75.67,0,.47-1.41,1.27-1.81,1.27s-.81-.73-1.34-.73c-.34,0-.81.2-2.08.47-1.61.26-2.55,1.74-3.75,2.74s-.47.74-1.61,2.15a12.68,12.68,0,0,0-2.08,2.68,48.78,48.78,0,0,1-3.62,5.36,33.64,33.64,0,0,1-4.08,4.49c-1.41,1.4-2.42,1.54-4,3s-1.88,1.14-3.69,2-2.95,1.21-4.22,1.68a30,30,0,0,1-4.89.93,30.48,30.48,0,0,0,2.28,3c1.47,1.54,1.4,2,2.61,3.48a12,12,0,0,0,4.89,3.49A12.66,12.66,0,0,0,410,74a13.18,13.18,0,0,0,5.43-1.34,7.8,7.8,0,0,1,1.67-.74c.61-.33,1.14-.47,1.81-.87a9.67,9.67,0,0,1,1.21-.67A1.8,1.8,0,0,1,421,70a.72.72,0,0,1,.53.2.49.49,0,0,1,.2.47c0,.2-.26.47-.53.67-.81.47-1.54.67-2.21,1.07a23.06,23.06,0,0,0-2.95,1.41,9.19,9.19,0,0,1-1.94,1,3.84,3.84,0,0,0-1.41.54,12.67,12.67,0,0,1-4.49,1.47c-.6,0-1.88.34-3.15.34a3.94,3.94,0,0,1-1.27-.14c-4.56-1.14-5.36-3.15-6.37-4.35a16.86,16.86,0,0,1-2-3.08c-.33-.61-.8-1.21-1.27-2s-.47-1.4-.94-2.28a4.14,4.14,0,0,0-1.67-1.74A14.56,14.56,0,0,1,390,66.32c-.74.74-.34.4-1.27,2.28a36.06,36.06,0,0,1-3.62,5.23,49.81,49.81,0,0,1-3.55,4c-1.28,1.07-1.68,1.21-3.29,2.68s-3.61,1.94-5.22,2.68a13.36,13.36,0,0,1-5.5,1.07c-.53,0-1.14-.07-1.94-.07s-1.27.14-2,.14a11.23,11.23,0,0,1-4.89-1.61c-1.21-.54-1.81-1.54-2.75-2.81A10.18,10.18,0,0,1,354,74c0-1.27.33-1.74,1.34-1.74.54,0,2,1.14,2,1.94s-.47.81-.47,2.41.6,1.68,1.14,3a4.33,4.33,0,0,0,2.08,2.41,12.5,12.5,0,0,0,3,1.14,2.6,2.6,0,0,0,1,.2c.8,0,1.74-.26,3.15-.4a11.18,11.18,0,0,0,4.89-2c1.47-.87,2.21-1.74,5.36-4.89.94-.94,2.07-2.75,3.08-4s1.87-2.34,6-8.37a17.62,17.62,0,0,1-4.49-1.14,2,2,0,0,1-1-1.88,2.32,2.32,0,0,1,.14-.74c.4-.87,1.41-1,2.75-1.07.33,0,.67-.07,1.07-.07a12.82,12.82,0,0,1,4.22.81l4.35-6.77a17.72,17.72,0,0,1-3.41.4,46,46,0,0,1-8.11-.93c-1.88-.41-2.61-.54-4.22-1a15.17,15.17,0,0,1-5.83-2.75c-2.41-1.67-3.82-3.41-3.82-6.5s3-5.83,4.22-6.09c.87-.2,1.74-.61,3-1a7.19,7.19,0,0,1,2.81-.4c.74,0,1.55.07,2.48.07,2,.06,2,.6,3.69,1a4.88,4.88,0,0,1,3.15,2.21,3.38,3.38,0,0,1,.06.81c0,.93-.26,2.14-.87,2.14S386.2,39.79,385.19,38.79Zm3.22,22-1.34-.6a4.33,4.33,0,0,0-1.61-.27c-.74,0-1.27.2-1.27.4,0,.87,1.2,1.21,3.35,1.81ZM399.6,49.3a22.15,22.15,0,0,0,2.61-1.4A27.32,27.32,0,0,0,408,42.47a7.76,7.76,0,0,0,1.61-3.62c0-.53-.13-.73-.33-.73a5.42,5.42,0,0,0-1.34.6,5.49,5.49,0,0,0-2.35,2.21c-.8,1.41-1.41,1.54-2.34,2.88s-1.88,2.75-2.48,3.62A18.59,18.59,0,0,0,399.6,49.3Zm72.76,23a13.94,13.94,0,0,1,1.94-.88l2-1a1.85,1.85,0,0,1,1-.27,1.18,1.18,0,0,1,.53.14.6.6,0,0,1,.2.53c-.06.2-.53.47-.6.54-.67.4-1.61.8-2.48,1.2a23.56,23.56,0,0,0-2.81,1.21c-.6.27-2.41.4-2.61.67a7.57,7.57,0,0,1-3.15.6c-.74,0-1.81.2-2.68.2a17,17,0,0,1-3.29-.4,17,17,0,0,1-2.07-1.2,9.15,9.15,0,0,1-1.95-2.35,10,10,0,0,1-.73-2.48c0-.13-.07-.2-.14-.2a2.73,2.73,0,0,0-1.14.74c-.73.6-1.2,1.47-2.07,1.87a3.87,3.87,0,0,0-1.68.81c-.94.6-1.27,1.54-2.41,2.34a22.06,22.06,0,0,1-2.75,2c-1.07.53-2.61.6-3.88,1.13a3.26,3.26,0,0,1-1.08.21,10.45,10.45,0,0,1-2.21-.41c-1-.33-2.21-1.4-2.21-2.34a7.56,7.56,0,0,1,.74-3.22c.6-.67.67-2,1.21-2.74a19.69,19.69,0,0,0,1.67-3,5.77,5.77,0,0,0,.6-1.88c0-.53-.27-.74-.94-.74a24.74,24.74,0,0,0-5.69,2c-.74.47-3.42,1.55-4.09,2s-2.34,1.14-2.88,1.34l-4.62,2a2.74,2.74,0,0,1-1.07.41.94.94,0,0,1-.87-.61c0-.26.33-.4.87-.67a3.2,3.2,0,0,1,.73-.4,2.83,2.83,0,0,0,1.61-.67,10.63,10.63,0,0,1,2.55-1.27l2-.94a16.88,16.88,0,0,0,2-.94c.87-.4,1.14-.13,1.81-.67.6-.33,6.63-3.28,7.9-3.75A15.52,15.52,0,0,1,443.28,60a3.79,3.79,0,0,1,2.48.74,1.7,1.7,0,0,1,.74,1.48,2.17,2.17,0,0,1-.27,1.13A11.56,11.56,0,0,1,445,66.05c-.53.88-.94,2.48-1.4,3.15a8.12,8.12,0,0,0-1.14,2.68,7.12,7.12,0,0,0-.74,2.48,1.08,1.08,0,0,0,1.21,1,2.36,2.36,0,0,0,.67-.14,20.42,20.42,0,0,0,2.14-1.34c.87-.4,2.48-2.07,3.22-2.54s1.07-1.14,1.6-1.14c.27,0,.74-.54,1.14-1s.87-.6,1.41-1.14a18.51,18.51,0,0,0,1.94-1.74c.74-.87,1.41-1.34,1.95-2.07a22,22,0,0,1,2-1.81,1.89,1.89,0,0,1,1.54-.74,1.12,1.12,0,0,1,.47.07c.8.06,1.47.53,1.47,1.07a3.51,3.51,0,0,1-.6,2.21,5.52,5.52,0,0,0-.61,2.61c0,.54.27,1.34.34,2.48a3.84,3.84,0,0,0,1.07,2,5.64,5.64,0,0,0,2.41.87,14,14,0,0,0,2.75.2,16,16,0,0,0,3.15-.6C471.56,72.49,472,72.62,472.36,72.29ZM495.88,77a11,11,0,0,1-2.75,2.47A4.51,4.51,0,0,1,491,80.66a9.28,9.28,0,0,1-3,.4,5.92,5.92,0,0,1-2.61-.6c-1.21-.6-1.48-.54-1.81-1.61a5.36,5.36,0,0,1-.27-1.2,1,1,0,0,1,.4-.81A7,7,0,0,1,486,75.7c.67-.13,2.41-.6,3.21-.67a13,13,0,0,0,2.28-.2,5.18,5.18,0,0,1,1-.13,15.23,15.23,0,0,1-.26-3.08,4.85,4.85,0,0,0-.2-1.75c-.41-.8-.21-2.68-.54-4.08-.07-.41-.07-.87-.2-1.41a6.34,6.34,0,0,1-1.47,1c-.74.47-3.42,1.55-4.09,2s-2.35,1.14-2.88,1.34l-4.63,2a2.61,2.61,0,0,1-1.07.41,1,1,0,0,1-.87-.61c0-.26.34-.4.87-.67a3.24,3.24,0,0,1,.74-.4,2.83,2.83,0,0,0,1.61-.67,10.72,10.72,0,0,1,2.54-1.27l2-.94a16.18,16.18,0,0,0,2-.94c.87-.4,1.14-.13,1.81-.67.4-.2,1.88-1.14,3.28-2-.06-.67-.13-1.4-.13-2a5.14,5.14,0,0,1,.13-1.27c.21-.8.88-1.81.88-2.14,0-1.21.6-1.81,1.81-3,.93-1,4-1.81,4.89-1.81s1.4.87,1.6,1.21a3.52,3.52,0,0,1,.54,1.54,2.53,2.53,0,0,1-.27,1.07,4.07,4.07,0,0,1-.94,1.47c-.47.54-.73,1.28-1.13,1.61a11.38,11.38,0,0,0-2,1.54,4,4,0,0,1-.74.61,13.66,13.66,0,0,0,.74,4.89c.33.67.4,1.34.4,4.82a12.63,12.63,0,0,1-.27,2.68,6,6,0,0,0,1.34-.07,16.37,16.37,0,0,0,2.34-.4c.81-.27,1.55.07,2.35-.47.33-.2,2.48-.4,2.88-.6s1.34-.33,1.81-.54a10.28,10.28,0,0,0,1.54-.53c.27-.14,1.54-.54,1.74-.6s.74-.27.94-.54a2.63,2.63,0,0,1,1-.34.72.72,0,0,1,.53.21c.2.2.27.33.27.46s-.27.41-.34.47l-1.4.67c-.27.27-1.21.27-1.48.47a10.73,10.73,0,0,1-4,1.48l-2,.33a4.06,4.06,0,0,0-1.74.47c-.53.47-3.55.67-6.1,1A7.81,7.81,0,0,1,495.88,77Zm-3.76-.74c-2.81.47-5.56.47-6.63,1.27a.93.93,0,0,0-.34.6c0,.21.14.34.34.54a7.85,7.85,0,0,0,3,.47,3.57,3.57,0,0,0,2.61-1.07A6,6,0,0,0,492.12,76.24Zm3.62-16.48c1-.87,1.88-1.75,2.15-2A4.48,4.48,0,0,0,499,55.13c0-.2-.2-.26-.4-.26a2,2,0,0,0-1.14.4,6.15,6.15,0,0,0-1.6,2.54A9.58,9.58,0,0,0,495.74,59.76Zm18,11a6.71,6.71,0,0,1-1.07.41c-.47,0-.94-.27-.94-.61s.47-.4.94-.67c.2-.26.47-.26.74-.4A3.39,3.39,0,0,0,515,68.8a10,10,0,0,1,2.81-1.41,26.28,26.28,0,0,0,3.75-1.74c.81-.4,1.07-.13,1.81-.67a17.51,17.51,0,0,0,2.08-.8,21.7,21.7,0,0,0,2-.94c3.08-1.41,4.69-1.94,6.16-2.48,1,0,2-1.2,3.22-1.2.74,0,1.41-.67,2.28-.67.27,0,.73.06,1.07.06a.47.47,0,0,0,.4-.2,4.4,4.4,0,0,1,2-.27,4.25,4.25,0,0,1,4,4,3.06,3.06,0,0,1-.53,2.27c-.4.67-1.07,1.41-1.74,1.41a.79.79,0,0,1-.67-.87,4.8,4.8,0,0,1,1.13-2,1.08,1.08,0,0,0,.14-.6,2,2,0,0,0-.67-1.68,2.75,2.75,0,0,0-1.94-.67c-.21,0-.47.07-.67.07a16.21,16.21,0,0,0-3.35,1.27c-1.68.81-2.68,1.81-4.09,2.41A16.13,16.13,0,0,0,530,67.46,13.89,13.89,0,0,0,528,70.34c-1.28,2.15-1.34,2.35-1.54,3.49,0,.2-.07.33-.07.47,0,.87.47,1.13,1.07,1.13s2.61-1.34,3.22-1.8c.8-.74,2-1.55,3.08-2.55A23.91,23.91,0,0,0,535.2,69a4.75,4.75,0,0,1,3-1.81,5.25,5.25,0,0,1,1.81-.6.92.92,0,0,1,.94.94.81.81,0,0,1-.07.4,2.91,2.91,0,0,0-.07.74c0,.47.07.8.07,1.27A8.45,8.45,0,0,0,542,73.42a8.54,8.54,0,0,0,1.87,1,10.8,10.8,0,0,0,3.15.33,6.76,6.76,0,0,0,3-.4c.8-.47,1.61-.2,2.35-.67a19.71,19.71,0,0,1,2.74-1.07,10.07,10.07,0,0,1,1.75-.74c.6-.33,1.13-.47,1.8-.87a8,8,0,0,1,1.14-.67,1.83,1.83,0,0,1,.94-.33.76.76,0,0,1,.54.2.44.44,0,0,1,.27.47c-.07.2-.41.47-.61.67-.74.47-1.47.67-2.21,1.07-.94.54-1.87.67-3,1.41a3.77,3.77,0,0,1-1.61.6c-.94.4-1.54.4-1.74.6-.41.54-2.68.87-3.42,1.21a24.84,24.84,0,0,1-4.83.6,5.15,5.15,0,0,1-1.07.07,12.51,12.51,0,0,1-3.75-.54,4.31,4.31,0,0,1-2.55-1.54c-.87-1.07-1.6-2.08-1.67-2.08-.27,0-1.21.81-2.21,1.14a31.46,31.46,0,0,0-3.62,2.35,18,18,0,0,1-3.62,1.47,5.58,5.58,0,0,1-1.27.2,4.87,4.87,0,0,1-1.47-.26,2.39,2.39,0,0,1-2.22-2.48,9,9,0,0,1,.94-3.62A23.3,23.3,0,0,1,523.68,69a5,5,0,0,0,1.54-1.81,11.06,11.06,0,0,1,2.68-2.54c-3.15,1.2-5.9,2.21-6.7,2.68s-2.21,1.07-3,1.47C517.52,69.14,514.77,70.34,513.76,70.74Zm60-8.37a8.79,8.79,0,0,1,1.61-3,26.57,26.57,0,0,0,2.54-4.62,20.72,20.72,0,0,1,1.88-2.81A5.2,5.2,0,0,1,581,50.11a10.54,10.54,0,0,0,1.61-2.21c.54-.67,1.07-1.14,1.41-1.54a1.69,1.69,0,0,0,.67-1.21c.13-.54,2.94-2.61,3.88-3.42s2.48-1.2,4.09-2.34a4.81,4.81,0,0,1,2.61-.74,4.23,4.23,0,0,1,1.88.34,4.38,4.38,0,0,1,.74,2.27,10,10,0,0,1-.94,2.55c-.47.74-.87,1.81-1.54,3.08A15.14,15.14,0,0,1,594,49.17c-.27.47-1.68,1.74-1.88,2.08s-.87,1.27-1.14,1.34a4,4,0,0,0-1.47,1.54,19.86,19.86,0,0,1-2.34,2.34c-.74.67-1.28,1.21-2,1.81a21.84,21.84,0,0,1-2.88,2.35A30.18,30.18,0,0,1,578.22,63c-1.28,2.82-1.54,3.55-2,4.42-1.68,3.22-1.74,4.23-1.74,4.76,0,.2.06.34.26.34a2.5,2.5,0,0,0,1.08-.61c.93-.67,1.07-.4,1.67-1.14A3.62,3.62,0,0,1,579,69.4c.54-.06.67-.46,1.21-1a27,27,0,0,1,2.41-2.14c.34-.27,1.48-1.41,2-2s1.81-.87,2.48-1.67A3.6,3.6,0,0,1,588.67,61a17.13,17.13,0,0,0,3-1.67,3.2,3.2,0,0,1,2.14-.54c1.34,0,3,1.74,3,3.28a7,7,0,0,1-1.61,3.15,5.3,5.3,0,0,1-2.21,1.54A4.2,4.2,0,0,1,591,68.06c-1,.34-1.88.94-2.82,1.21s-1.74.54-1.74,1,.81,1.13,1.34,1.47a12.82,12.82,0,0,0,2.21.8c.2.14.34.2,1.14.27a12.7,12.7,0,0,0,2,.4,2.42,2.42,0,0,0,.74.07c.53,0,1.2-.07,1.87-.13.94-.07,1.81-.27,2.28-.27a5,5,0,0,0,1.74-.4,4.91,4.91,0,0,1,.81-.2c1.07-.34,2.14-.67,3.15-1.08a12.12,12.12,0,0,0,1.54-.87,2.87,2.87,0,0,1,1-.27c.34,0,.54.21.54.67,0,.21-.54.47-1,.74,0,0-.13.14-.2.14a35.1,35.1,0,0,1-4.22,2c-1.2.4-3.55,1.07-4.89,1.34a39,39,0,0,1-4.42.33c-1.41,0-3-.4-3.75-.4s-1.07-.54-2-.74a10.72,10.72,0,0,1-3-1.54c-.6-.47-.87-.8-.87-1.34a3.09,3.09,0,0,1,.34-1.14c.73-1.27,1.67-.74,2.54-1.14a6.89,6.89,0,0,0,1.88-.94c.53-.26.74-.87,1.27-1.13s1.07-.94,1.74-1.28.34-.73,1.08-1.67a3.1,3.1,0,0,0,.8-1.74,1.07,1.07,0,0,0-.94-1,2.75,2.75,0,0,0-1.27.6c-.87.67-1.41,1.14-2.08,1.61s-1.61,1.21-2.14,1.61-1.14.54-1.21,1a4.74,4.74,0,0,1-1.74,1.88c-.67.47-1.21,1.41-1.81,1.61s-.33.6-1.21,1.34c-.2.13-3.28,2.61-3.35,2.81-.33.74-1.8,1.41-2.47,2s-1.75,1.74-2.42,1.74-1.34-.2-1.54-.6a5.85,5.85,0,0,1-.6-2.14c0-1.48,1-3,1.61-4.56.4-1.27.93-3.35,1.14-4-1.08.47-2.22,1.07-2.62,1.27-.73.41-2.34,1.14-2.81,1.34s-2.35.94-2.95,1.21-1.07.54-1.74.8a4,4,0,0,1-1.07.41,1,1,0,0,1-.94-.61c0-.26.47-.4.94-.67.26-.26.6-.26.73-.4a3.39,3.39,0,0,0,1.68-.67,11.69,11.69,0,0,1,3-1.47c2.08-.87,2.82-1.34,3.55-1.68a32.6,32.6,0,0,0,3-1.4S573.53,62.91,573.73,62.37Zm7.77-2.95a21.65,21.65,0,0,1,2.35-1.94,20.7,20.7,0,0,0,2.41-2.08,28.05,28.05,0,0,0,2.07-2c.54-.67,1.88-2.48,2.68-3.28a26.48,26.48,0,0,0,1.88-2.28c.54-.74.74-1.27,1.07-1.61a10.8,10.8,0,0,0,.81-1.94,9.56,9.56,0,0,0,.67-1.94,1.69,1.69,0,0,0-.61-1c-.47,0-1.07.6-1.47.87s-1.21,1.48-1.88,1.61-.4.94-1.54,1.88A27,27,0,0,0,586.79,49,24.19,24.19,0,0,0,585,50.78c-.33.33-.26.8-.33.94a8.23,8.23,0,0,0-1.27,2c-.2.67-1.08,1.4-1.48,2.21-.6.73-.27,1.14-2.95,5.22A9,9,0,0,0,581.5,59.42Zm25.73,11.32a6.46,6.46,0,0,1-1.08.41c-.46,0-.93-.27-.93-.61s.47-.4.93-.67c.21-.26.47-.26.74-.4a3.29,3.29,0,0,0,1.61-.67,10,10,0,0,1,2.81-1.41,26.64,26.64,0,0,0,3.76-1.74c.8-.4,1.07-.13,1.81-.67a18.39,18.39,0,0,0,2.07-.8,21.7,21.7,0,0,0,2-.94c3.08-1.41,4.69-1.94,6.17-2.48,1,0,2-1.2,3.21-1.2.74,0,1.41-.67,2.28-.67.27,0,.74.06,1.07.06a.47.47,0,0,0,.41-.2,4.32,4.32,0,0,1,2-.27,4.27,4.27,0,0,1,4,4,3,3,0,0,1-.54,2.27c-.4.67-1.07,1.41-1.74,1.41a.79.79,0,0,1-.67-.87,4.85,4.85,0,0,1,1.14-2,1.1,1.1,0,0,0,.13-.6,2,2,0,0,0-.67-1.68,2.73,2.73,0,0,0-1.94-.67c-.2,0-.47.07-.67.07a16.21,16.21,0,0,0-3.35,1.27c-1.68.81-2.68,1.81-4.09,2.41a16.07,16.07,0,0,0-4.15,3.42,13.81,13.81,0,0,0-2.08,2.88c-1.27,2.15-1.34,2.35-1.54,3.49,0,.2-.07.33-.07.47,0,.87.47,1.13,1.07,1.13s2.62-1.34,3.22-1.8c.81-.74,2-1.55,3.08-2.55A21.24,21.24,0,0,0,628.67,69a4.76,4.76,0,0,1,3-1.81,5.25,5.25,0,0,1,1.81-.6.91.91,0,0,1,.94.94.81.81,0,0,1-.07.4,3.38,3.38,0,0,0-.06.74c0,.47.06.8.06,1.27a8.6,8.6,0,0,0,1.14,3.48,8.81,8.81,0,0,0,1.88,1,10.8,10.8,0,0,0,3.15.33,6.74,6.74,0,0,0,2.94-.4c.81-.47,1.61-.2,2.35-.67a19.83,19.83,0,0,1,2.75-1.07,10,10,0,0,1,1.74-.74c.6-.33,1.14-.47,1.81-.87a7,7,0,0,1,1.14-.67,1.79,1.79,0,0,1,.93-.33.72.72,0,0,1,.54.2.44.44,0,0,1,.27.47,2.79,2.79,0,0,1-.6.67c-.74.47-1.48.67-2.22,1.07-.93.54-1.87.67-3,1.41a3.72,3.72,0,0,1-1.61.6c-.94.4-1.54.4-1.74.6-.4.54-2.68.87-3.42,1.21a24.83,24.83,0,0,1-4.82.6,5.2,5.2,0,0,1-1.07.07,12.53,12.53,0,0,1-3.76-.54,4.28,4.28,0,0,1-2.54-1.54c-.87-1.07-1.61-2.08-1.68-2.08-.26,0-1.2.81-2.21,1.14a32.36,32.36,0,0,0-3.62,2.35,18.14,18.14,0,0,1-3.61,1.47,5.65,5.65,0,0,1-1.28.2,4.87,4.87,0,0,1-1.47-.26,2.39,2.39,0,0,1-2.21-2.48,8.79,8.79,0,0,1,.94-3.62A23.17,23.17,0,0,1,617.14,69a4.9,4.9,0,0,0,1.54-1.81,11.06,11.06,0,0,1,2.68-2.54c-3.14,1.2-5.89,2.21-6.7,2.68s-2.21,1.07-3,1.47S608.23,70.34,607.23,70.74Z"/></g><g id="mask"><path class="cls-1" d="M41.47,39.73a11.73,11.73,0,0,0-10.41-5.27c-7.24.26-6.51,9.25-6.51,9.25s.72,5.55,13.65,7.65S56.71,49.3,56.71,49.3s11.43-8.69,8.09-12.12S51,49.3,51,49.3L38.2,71.88S28,84.65,21.52,84.21,8.76,83.05,9.24,74.06s-23.31-51.25,19-59.75,57.8,17.16,59,20.12-2.51,4-2.51,4l-6.3-.26S65.2,57.34,58.6,58.89a41.67,41.67,0,0,0-11.35,4.49s-13.94.92-12.13-2.82,11.73.67,11.73.67S53,74.31,57.33,75s16.85-4.49,16.85-4.49L88.52,65V70.9s12.78-3,12.78-9.74S91.67,65,91.67,65s-5.62,6.58-1.3,9.77,12.15,1.58,16.84-.29,26-12.33,26-12.33h4.27L130,71.88l1.7,4.36,5.7,1.07,33.9-16.25s7.32-2,4.63-7.13-6.83,5-6.83,5l1.33,13.47s-.44,7-6.23,7.77-5.36-2.48-5.36-2.48l6-2.62,13.2-.4,33.6-13.47-5.83,13.63,3,2.65,18.39-15.27-1,6.26-.73,2.23,4.13,3.16,8.77.18s40.53-17.07,41.5-32.67S252,71.12,253.4,76.84s4.31-2.29,4.31-2.29l17.47-15.26,2.69,1.94L276.41,65l-8.5,5.88s5.69,6.63,17.9,2.34S303.12,65,303.12,65v5.44s12.93-4.08,13.39-10.66S305.07,65,305.07,65l-1.7,8.8,3.89,2.42s11.46,1.31,20.18-5.9,33.25-64,52.19-49.95,8.78,18.26,8.78,18.26L381.24,36s-7.87-2.38-10.35,2.63,2.92,9.76,2.92,9.76,15.68,5.43,22.83,2.84,14.33-8,14.08-13.13-12.56,8.48-12.56,8.48-15.26,30.46-19.5,31.45-5.59,6.66-14.57,5.22-9.89-10.55-9.89-10.55,42.68-53.79,63.08-49.42,21.13,4.53,21.13,11.13-5.91,3.69-5.91,3.69l-3.15-.47s-6.54.51-9.18,6.06-19.16,20-24.86,19.46-12.55,2.72-14.11-1.94,8.08-1.74,8.08-1.74l12.21,14.82,9.28,1.93L442.3,61.06l2.43,1.11L438.9,72.85l-.25,3.39,5-1L459,62.44l3.41,1.37-4.11,5,2.18,4.49,9,1.1,26.26-12.66s7.91-6.1,2.95-9.05-6.64,8.44-6.64,8.44l2.75,9.5-1.32,5.58s-3,7.89-10,2.61,16.81-5.16,16.81-5.16,20.63-4.77,27.54-9,17.55-8.18,17.29-5.09-.87,6.56-.87,6.56-3.62-5.23-10.8-1.68a20.7,20.7,0,0,0-9.62,9.14l-1.21,2.66h4.86s9.73-6.57,10.2-7.81,3.22-.9,3.22-.9l-2.25,6.29,5.39,3S574.06,65,579,61.23,597,48.32,595.44,40.06s-17.86,18.42-17.86,18.42S571.15,72.62,571.27,75s19.67-15.27,19.67-15.27,4.61-.5,3.16,2.41-6.56,7.28-9.72,8.25S589,73.58,589,73.58s26.17-4.93,33.76-9.48,12.24-6.35,13.6-4.75a18.83,18.83,0,0,0,3.7,3.09l-2.95,2.81-3.91-3.08-11.9,4.72-4.13,5.47-.24,3.88h3.16l6-4.23,4-3.81h2.12l-.49,4.89,2.43,1.7,8.23,1.45,10.86-5.9-7-51.59L476.31,3,202.38,11.17,153.51,38.65l-10.45,8.78"/></g></g></svg>